<svg width="291" height="324" viewBox="0 0 291 324" fill="none" xmlns="http://www.w3.org/2000/svg">
<path d="M70 8L221 7.99999" stroke="black" stroke-width="15" stroke-linecap="round"/>
<line x1="69.5" y1="8.5" x2="69.5" y2="25.5" stroke="black" stroke-width="15" stroke-linecap="round"/>
<path d="M221 8L221 26" stroke="black" stroke-width="15" stroke-linecap="round"/>
<line x1="219.646" y1="27.0623" x2="179.062" y2="47.3541" stroke="black" stroke-width="15" stroke-linecap="round"/>
<line x1="107.816" y1="46.9649" x2="69.9649" y2="26.1838" stroke="black" stroke-width="15" stroke-linecap="round"/>
<line x1="177.5" y1="48.5" x2="110.5" y2="48.5" stroke="black" stroke-width="15" stroke-linecap="round"/>
<path d="M220 66L220 255" stroke="black" stroke-width="15" stroke-linecap="round"/>
<path d="M70 66L70 255" stroke="black" stroke-width="15" stroke-linecap="round"/>
<path d="M220 255L70 255" stroke="black" stroke-width="15" stroke-linecap="round"/>
<path d="M283.092 84.0685L283 316" stroke="black" stroke-width="15" stroke-linecap="round"/>
<line x1="247.5" y1="158.5" x2="223.5" y2="158.5" stroke="black" stroke-width="15" stroke-linecap="round"/>
<line x1="33.6492" y1="189.539" x2="11.8434" y2="186.887" stroke="black" stroke-width="15" stroke-linecap="round"/>
<path d="M71.437 276.428L8 299.914" stroke="black" stroke-width="15" stroke-linecap="round"/>
<path d="M165.07 294.827L71 275.914" stroke="black" stroke-width="15" stroke-linecap="round"/>
<path d="M280.426 272L165 294.914" stroke="black" stroke-width="15" stroke-linecap="round"/>
<line x1="64.9913" y1="181.35" x2="36.3495" y2="190.009" stroke="black" stroke-width="15" stroke-linecap="round"/>
<path d="M281.012 169.786L249 159" stroke="black" stroke-width="15" stroke-linecap="round"/>
<path d="M8 84L7.99999 316" stroke="black" stroke-width="15" stroke-linecap="round"/>
<path d="M283 316L8 316" stroke="black" stroke-width="15" stroke-linecap="round"/>
<path d="M185 114C190.61 115.738 196.16 119.428 201.788 120.7C207.189 121.921 212.592 123 218 123" stroke="black" stroke-width="15" stroke-linecap="round"/>
<path d="M185 114C180.92 115.738 176.883 119.428 172.79 120.7C168.863 121.921 164.933 123 161 123" stroke="black" stroke-width="15" stroke-linecap="round"/>
<path d="M130 114C135.61 115.738 141.16 119.428 146.788 120.7C152.189 121.921 157.592 123 163 123" stroke="black" stroke-width="15" stroke-linecap="round"/>
<path d="M76 114C81.6104 115.738 87.1603 119.428 92.7883 120.7C98.1886 121.921 103.592 123 109 123" stroke="black" stroke-width="15" stroke-linecap="round"/>
<path d="M76 114C75.32 115.352 74.6472 118.222 73.9651 119.211C73.3105 120.161 72.6555 121 72 121" stroke="black" stroke-width="15" stroke-linecap="round"/>
<path d="M130 114C126.09 115.738 122.222 119.428 118.299 120.7C114.535 121.921 110.769 123 107 123" stroke="black" stroke-width="15" stroke-linecap="round"/>
</svg>
