<svg width="728" height="723" viewBox="0 0 728 723" fill="none" xmlns="http://www.w3.org/2000/svg">
<g filter="url(#filter0_d_938_3)">
<path d="M300.5 443.5C391 426.5 496 451.5 504.5 470" stroke="white" stroke-width="8" stroke-linecap="round"/>
<line x1="266.208" y1="69.459" x2="419.459" y2="187.792" stroke="white" stroke-width="6" stroke-linecap="round"/>
<line x1="452.199" y1="137.395" x2="574.395" y2="228.801" stroke="white" stroke-width="6" stroke-linecap="round"/>
<line x1="265.849" y1="69.2155" x2="451.216" y2="137.151" stroke="white" stroke-width="6" stroke-linecap="round"/>
<line x1="265.815" y1="69.1636" x2="156.164" y2="232.185" stroke="white" stroke-width="6" stroke-linecap="round"/>
<line x1="265.802" y1="88.1662" x2="162.166" y2="241.198" stroke="white" stroke-width="6" stroke-linecap="round"/>
<line x1="170.533" y1="237.981" x2="162.981" y2="241.467" stroke="white" stroke-width="6" stroke-linecap="round"/>
<line x1="248.47" y1="255.353" x2="169.353" y2="239.53" stroke="white" stroke-width="6" stroke-linecap="round"/>
<path d="M246 210C246 211.657 247.343 213 249 213C250.657 213 252 211.657 252 210L246 210ZM252 115L252 112L246 112L246 115L252 115ZM252 210L252 115L246 115L246 210L252 210Z" fill="white"/>
<path d="M230 228C230 229.657 231.343 231 233 231C234.657 231 236 229.657 236 228H230ZM236 208V205H230V208H236ZM236 228V208H230V228H236Z" fill="white"/>
<path d="M248.227 213.899C249.828 214.326 251.472 213.374 251.899 211.773C252.326 210.172 251.374 208.528 249.773 208.101L248.227 213.899ZM234.773 204.101L231.874 203.328L230.328 209.126L233.227 209.899L234.773 204.101ZM249.773 208.101L234.773 204.101L233.227 209.899L248.227 213.899L249.773 208.101Z" fill="white"/>
<line x1="249" y1="649" x2="249" y2="223" stroke="white" stroke-width="6" stroke-linecap="round"/>
<line x1="161.854" y1="241.099" x2="156.099" y2="232.146" stroke="white" stroke-width="6" stroke-linecap="round"/>
<path d="M420 188L575 229" stroke="white" stroke-width="6" stroke-linecap="round"/>
<path d="M308.376 155.926C306.821 156.33 305.267 156.731 303.739 157.228C303.607 157.271 301.754 157.709 302.991 157.871C306.205 158.292 309.477 158.663 312.714 158.829C313.569 158.872 317.97 158.889 314.629 158.889C312.789 158.889 310.949 158.889 309.109 158.889C307.596 158.889 305.417 158.549 303.963 159.173C303.214 159.494 304.414 159.681 304.516 159.696C306.236 159.952 308.006 159.992 309.737 160.1C312.152 160.251 319.288 160.663 316.918 161.147C313.699 161.806 310.337 161.162 307.105 162C302.967 163.073 308.925 163.661 310.022 163.735C312.003 163.871 313.99 163.952 315.976 163.99C316.239 163.995 318.078 163.811 318.459 164.065C318.935 164.382 317.326 164.245 316.754 164.259C314.949 164.302 313.142 164.253 311.338 164.334C310.448 164.374 305.411 164.884 308.436 166.488C310.381 167.519 312.748 167.887 314.869 168.313C318.878 169.119 322.91 169.853 326.941 170.542C328.281 170.771 333.276 171.643 328.766 171.485C324.966 171.351 321.003 170.39 317.202 170.752C315.036 170.958 321.549 171.006 323.725 171.006C324.333 171.006 326.13 170.88 325.55 171.066C323.871 171.603 321.595 171.279 319.865 171.395C318.847 171.463 311.461 171.573 311.218 173.1C311.037 174.243 320.317 174.425 321.032 174.447C321.372 174.457 326.625 174.191 326.059 173.908C324.198 172.978 321.932 173.383 319.955 172.981C315.124 171.996 311.219 167.185 309.124 163.032C308.229 161.259 306.068 156.647 308.256 154.984C311.415 152.583 314.946 157.385 316.215 159.636C317.62 162.129 318.928 165.626 318.489 168.553C318.236 170.24 316.514 170.964 315.048 170.168C312.456 168.76 310.907 165.358 309.842 162.778C309.497 161.942 308.64 160.276 309.124 159.307C309.829 157.898 312.909 158.735 313.926 159.008C317.329 159.923 320.908 162.161 323.007 165.037C325.697 168.723 320.648 169.098 318.07 168.762C315.721 168.456 310.245 167.227 309.214 164.603C308.305 162.289 313.03 161.406 314.315 161.596C317.024 161.996 319.541 164.377 320.493 166.892C321.484 169.508 318.472 169.357 316.783 168.852C315.745 168.541 309.781 166.026 310.77 164.214C311.186 163.451 312.937 163.363 313.612 163.317C315.848 163.164 318.041 163.704 319.925 164.932C320.646 165.402 324.569 168.787 323.096 170.019C321.35 171.479 317.066 168.94 315.617 168.104C315.44 168.002 311.536 165.778 312.834 165.291C315.568 164.266 318.792 166.691 320.508 168.553C320.725 168.787 322.056 170.151 321.75 170.707C321.307 171.512 319.94 170.259 319.147 169.794C317.472 168.813 315.841 167.708 314.33 166.488C313.674 165.958 312.149 164.911 311.966 163.945C311.656 162.307 317.22 162.416 317.965 162.389C318.442 162.372 325.356 161.791 324.892 161.192C324.318 160.452 322.717 159.938 321.975 159.636C319.543 158.648 317.035 157.834 314.51 157.123C310.901 156.107 307.154 155.607 303.559 154.58C302.746 154.348 303.08 153.85 303.649 153.503C305.211 152.548 307.497 153.157 308.795 154.311C311.79 156.973 299.894 154.894 299.849 154.924C299.159 155.384 301.426 155.454 302.243 155.597C304.521 155.999 306.831 156.11 309.139 156.166C311.194 156.215 313.262 156.23 315.317 156.196C316.079 156.183 317.773 156.179 316.335 155.208C311.82 152.161 306.047 150.513 301.106 148.297C300.367 147.966 292.246 144.99 292.609 143.54C292.854 142.559 297.42 140.463 298.129 141.924C298.705 143.112 298.618 144.954 298.682 146.173C298.873 149.778 299.006 153.384 299.221 156.989C299.518 161.979 299.553 166.994 299.909 171.978C299.928 172.244 300.537 176.782 300.537 174.432C300.537 169.413 299.693 164.391 299.55 159.367C299.392 153.836 299.273 148.317 298.951 142.792C298.848 141.01 298.738 139.228 298.562 137.451C298.368 135.477 298.413 137.179 298.413 138.05C298.413 151.748 299.902 165.553 301.794 179.114C302.193 181.975 301.578 176.475 301.525 176.092C300.799 170.932 299.621 165.837 298.682 160.714C297.8 155.902 297.254 151.173 297.007 146.292C296.967 145.515 296.979 144.61 296.797 143.839C296.54 142.744 296.463 146.067 296.408 147.19C296.108 153.317 296.259 159.473 296.259 165.605C296.259 168.004 296.259 170.403 296.259 172.801C296.259 173.517 296.49 175.054 296.244 175.793C295.947 176.685 296.089 173.919 296.049 172.981C295.949 170.605 295.85 168.233 295.705 165.86C295.242 158.263 294.885 150.673 293.895 143.121C293.688 141.538 293.464 139.952 293.192 138.379C293.07 137.676 293.027 137.646 292.968 138.364C292.627 142.485 292.81 146.632 293.087 150.75C293.438 155.966 293.851 161.173 294.045 166.398C294.079 167.325 294.104 168.253 294.104 169.181C294.104 170.472 294.108 166.598 294.09 165.306C294.015 160.188 293.5 155.107 293.177 150.002C292.951 146.435 293.007 142.836 292.743 139.276C292.57 136.945 292.414 143.941 292.354 146.277C292.155 154.109 292.169 161.946 292.01 169.779C291.935 173.459 291.95 177.139 291.95 180.819C291.95 182.795 292.112 176.871 292.16 174.895C292.334 167.77 292.196 160.625 291.95 153.503C291.758 147.938 291.142 142.408 291.142 136.838C291.142 136.09 291.477 133.925 291.142 134.594C290.924 135.03 291.011 136.883 290.993 137.182C290.595 143.601 290.239 150.025 289.946 156.45C289.523 165.703 289.258 193.493 289.258 184.23C289.258 169.687 289.527 155.148 289.527 140.608C289.527 130.026 289.527 161.771 289.527 172.352C289.527 174.487 289.527 176.621 289.527 178.755C289.527 178.935 289.527 179.114 289.527 179.294C289.527 179.852 289.527 178.177 289.527 177.618C289.527 172.646 289.408 167.698 289.123 162.733C288.657 154.604 288.45 146.519 288.45 138.379C288.45 137.852 288.795 141.462 288.898 141.984C289.45 144.766 290.04 147.628 291.083 150.272C291.736 151.927 292.172 153.57 293.566 154.79C295.87 156.805 299.274 157.759 302.213 158.29C306.289 159.027 310.455 159.096 314.569 159.487C315.112 159.538 321.672 159.696 319.117 161.327C316.39 163.068 312.558 163.421 309.498 164.289C307.782 164.776 302.639 165.83 303.021 168.553C303.385 171.155 308.734 171.004 310.47 171.111C314.234 171.341 325.55 171.275 321.78 171.275C317.556 171.275 313.314 171.176 309.094 171.395C308.429 171.429 297.851 172.198 299.101 174.506C299.609 175.444 301.583 175.688 302.392 175.808C305.428 176.258 308.548 176.265 311.607 176.332C319.203 176.496 326.811 176.471 334.391 177.065C335.252 177.132 336.854 176.611 336.949 177.469C337.038 178.268 335.372 177.811 334.571 177.872C328.422 178.345 322.154 178.05 316.11 179.458C314.925 179.734 307.214 181.621 307.628 184.021C307.781 184.909 310.48 184.921 310.8 184.948C315.791 185.376 320.845 185.271 325.849 185.337C334.407 185.451 343.001 185.365 351.55 185.816C352.184 185.85 352.818 185.893 353.45 185.951C353.882 185.99 354.721 185.801 354.721 186.235C354.721 186.335 354.577 186.383 354.482 186.414C353.833 186.628 352.212 186.841 351.729 186.893C343.639 187.76 335.465 187.204 327.375 188.15C324.219 188.519 321.007 189.062 318.04 190.244C317.779 190.348 314.279 191.736 316.021 192.518C317.49 193.178 319.516 193.181 321.062 193.296C324.895 193.581 328.743 193.705 332.581 193.909C340.111 194.31 347.692 194.521 355.2 195.241C355.829 195.301 356.459 195.363 357.085 195.45C357.557 195.516 358.514 195.365 358.461 195.839C358.445 195.985 358.212 196.003 358.072 196.049C357.274 196.308 356.178 196.386 355.41 196.452C346.819 197.192 337.853 196.355 329.41 198.322C328.803 198.464 321.716 200.683 324.592 202.511C326.292 203.591 328.895 203.911 330.786 204.232C335.979 205.113 341.236 205.361 346.494 205.443C350.965 205.513 356.702 206.249 361.049 204.8C362.318 204.377 357.983 203.874 357.654 203.858" stroke="white" stroke-width="3" stroke-linecap="round"/>
<path d="M307.568 150.272C306.799 147.675 305.843 145.07 304.337 142.792C303.545 141.594 306.489 143.44 306.731 144.407C307.594 147.863 299.778 148.998 297.785 149.344C297.683 149.362 293.873 149.813 294.015 150.122C294.454 151.083 297.688 151.164 298.443 151.229C300.628 151.417 302.835 151.449 305.025 151.558C305.304 151.572 307.256 151.887 307.509 151.498C307.886 150.917 305.451 148.419 305.145 147.848C303.789 145.315 302.43 142.518 301.644 139.77" stroke="white" stroke-width="10" stroke-linecap="round"/>
<path d="M293.835 131.692C293.056 134.616 294.035 138.205 294.658 141.071C295.268 143.878 295.949 146.704 296.737 149.464C297.254 151.27 297.738 153.373 297.859 155.253C297.94 156.497 297.748 157.773 297.934 159.008C298.389 162.021 297.901 165.078 298.204 168.104C298.55 171.567 298.413 175.065 298.413 178.546C298.413 180.593 297.874 186.712 297.874 184.664C297.874 184.286 297.702 183.459 298.039 183.183C299.072 182.338 301.878 182.854 303.11 182.854C306.456 182.854 309.802 182.854 313.148 182.854C314.985 182.854 312.346 182.854 311.907 182.854C308.835 182.854 305.763 182.854 302.691 182.854C300.531 182.854 303.942 182.854 304.487 182.854C307.459 182.854 310.431 182.854 313.403 182.854C314.649 182.854 319.37 182.854 315.437 182.854C311.528 182.854 307.618 182.854 303.709 182.854C302.542 182.854 299.041 182.854 300.208 182.854C301.295 182.854 302.382 182.854 303.469 182.854C310.121 182.854 316.774 182.854 323.426 182.854C323.952 182.854 328.071 182.854 326.717 182.854C324.543 182.854 322.369 182.854 320.194 182.854C318.439 182.854 316.684 182.854 314.929 182.854C313.174 182.854 314.403 182.854 315.392 182.854C321.81 182.854 328.228 182.854 334.646 182.854C338.096 182.854 341.547 182.854 344.998 182.854" stroke="white" stroke-width="10" stroke-linecap="round"/>
<path d="M295.72 173.968C293.369 175.1 292.83 178.566 292.773 180.849C292.695 184.009 292.364 187.529 293.282 190.588C293.852 192.487 293.566 194.837 293.566 196.856C293.566 198.256 293.373 199.836 293.626 201.225C293.802 202.191 293.482 203.654 294.763 203.05C297.052 201.968 300.151 202.494 302.602 202.511C307.148 202.543 311.623 203.551 316.185 203.588C317.724 203.601 322.331 203.857 320.793 203.857C318.884 203.857 317.015 203.408 315.123 203.214C312.8 202.977 310.453 203.05 308.122 203.05C306.21 203.05 304.342 203.319 302.437 203.319C301.632 203.319 301.274 203.42 300.702 203.992C300.249 204.445 299.49 205.826 299.49 204.216C299.49 201.982 299.626 198.961 300.447 196.871C301.212 194.926 302.845 193.04 305.01 192.847C308.256 192.559 310.006 192.991 310.231 196.587C310.284 197.434 310.574 199.31 309.812 199.968C308.751 200.885 307.13 199.908 306.282 199.22C304.165 197.504 301.363 192.364 304.068 190.035C305.551 188.757 308.474 189.353 310.111 189.885C312.716 190.731 315.797 192.498 317.502 194.702C321.263 199.564 309.182 197.676 307.389 197.275C305.049 196.752 295.231 194.889 300.567 190.962C305.08 187.641 313.732 190.593 317.143 194.223C317.984 195.119 319.794 197.618 318.369 198.831C317.035 199.967 314.498 198.81 313.343 198.023C309.309 195.277 307.035 190.392 307.688 185.547C308.439 179.97 313.92 181.083 317.307 183.781C317.801 184.175 319.885 186.071 319.057 186.968C317.911 188.21 313.839 184.644 313.178 184.096C307.767 179.604 304.074 174.341 303.813 167.176C303.776 166.135 303.595 164.56 304.487 163.795C304.704 163.609 305.77 163.164 305.923 163.661C306.28 164.823 305.967 166.635 305.938 167.819C305.885 169.934 305.444 172.039 305.444 174.147C305.444 175.459 305.897 175.145 305.938 173.953C306.033 171.142 305.857 168.305 305.399 165.531C305.198 164.31 304.906 163.104 304.726 161.88C304.664 161.461 304.543 160.574 304.965 161.611C306.841 166.215 308.966 170.492 311.622 174.716C314.101 178.657 316.774 182.783 321.331 184.485C321.949 184.715 324.561 185.73 324.488 184.335C324.246 179.746 320.31 175.878 317.651 172.472C317.532 172.319 314.781 168.722 314.629 168.911C314.081 169.596 318.351 175.664 318.668 176.152C321.712 180.829 325.503 185.137 329.649 188.868C332.481 191.416 335.765 193.414 338.565 195.989C338.681 196.095 341.125 198.725 339.792 197.903C337.237 196.328 334.878 194.514 332.222 193.086C329.833 191.803 326.924 190.132 324.084 190.453C321.914 190.699 322.967 194.31 323.306 195.57C324.092 198.496 325.623 201.228 328.243 202.87C329.334 203.554 331.54 204.688 332.91 204.336C333.367 204.219 330.554 202.526 330.307 202.421C329.97 202.278 326.699 201.405 328.392 201.763C331.706 202.464 335.171 202.242 338.535 202.242C340.091 202.242 341.647 202.242 343.202 202.242C343.332 202.242 343.462 202.242 343.591 202.242C343.96 202.242 342.853 202.244 342.484 202.242C339.212 202.218 335.943 202.028 332.671 201.987C330.473 201.96 326.07 201.277 324.069 202.646C323.644 202.937 324.934 203.24 325.43 203.379C327.272 203.893 329.156 204.272 331.025 204.665C334.618 205.422 338.208 206.202 341.811 206.909C348.167 208.158 329.085 204.228 322.618 203.872C322.293 203.855 317.536 203.542 318.923 203.603C322.328 203.754 325.547 204.881 328.826 205.712C332.429 206.626 336.059 206.973 339.702 207.627C341.648 207.977 341.503 208.231 339.657 208.136C336.096 207.953 332.579 207.579 329.006 207.642C326.458 207.687 323.946 208.045 321.406 208.151C319.676 208.223 321.069 208.406 321.915 208.585C324.043 209.035 326.182 209.39 328.318 209.796C330.594 210.23 332.835 210.796 335.079 211.367C336.953 211.844 336.211 211.678 334.765 211.352C330.15 210.312 325.697 209.432 320.942 209.512C320.418 209.521 323.572 210.206 324.054 210.32C326.887 210.991 329.697 211.686 332.551 212.265C336.18 213 346.987 215.516 343.442 214.449C336.744 212.432 330.019 210.585 323.306 208.645C319.306 207.488 315.645 205.375 311.548 204.725C310.031 204.484 308.562 204.396 307.03 204.396C305.484 204.396 306.172 204.991 307.149 205.802C309 207.339 310.84 207.335 312.954 208.181C315.287 209.114 317.745 209.434 320.09 210.215C323.118 211.225 326.203 212.111 329.365 212.744C332.151 213.301 334.902 213.876 337.608 214.778C341.03 215.919 344.748 217.733 348.364 218.114C349.172 218.199 349.914 218.611 350.712 218.668C351.536 218.726 352.767 218.754 353.555 218.997C354.689 219.346 358.683 221.042 358.94 219.146C359.516 214.9 354.529 212.228 351.73 210.051C348.404 207.464 346.12 203.082 343.517 199.803C341.643 197.443 340.72 194.793 339.403 192.129C338.388 190.077 336.956 188.282 335.842 186.295C335.14 185.043 334.776 183.687 333.897 182.525C332.94 181.258 331.743 180.188 330.846 178.875C330.02 177.665 329.347 176.361 328.452 175.195C327.592 174.073 326.477 173.198 325.61 172.083C323.964 169.967 322.26 167.86 321.032 165.471C319.794 163.061 317.962 161.15 316.514 158.888C312.99 153.381 309.662 147.818 305.624 142.672C303.161 139.535 300.901 135.78 299.355 132.096C298.676 130.475 297.575 129.102 296.917 127.488C296.551 126.589 295.842 125.057 295.047 124.421C294.066 123.636 292.159 120.43 292.504 121.639C293.456 124.97 298.223 127.021 300.298 129.672C303.204 133.385 306.085 137.09 308.855 140.907C311.468 144.507 314.703 147.595 317.532 151.02C319.883 153.866 322.748 156.091 325.131 158.888C328.304 162.613 331.564 166.278 334.556 170.138C337.323 173.709 340.841 176.676 343.517 180.296C344.821 182.06 346.249 183.779 347.705 185.427C350.072 188.106 353.178 189.951 355.484 192.683C357.643 195.239 359.816 197.758 362.097 200.207C363.517 201.732 365.106 203.054 366.27 204.8C366.963 205.838 367.654 206.911 368.26 208.001C368.418 208.286 367.224 208.163 367.063 208.136C365.663 207.903 364.391 206.681 363.293 205.877C360.674 203.959 357.722 202.576 355.17 200.566C352.849 198.739 350.932 196.367 348.977 194.164C346.126 190.951 343.874 187.287 341.497 183.722C340.962 182.919 341.114 183.762 341.228 184.26C341.607 185.923 342.218 187.487 342.963 189.017C344.993 193.188 346.832 197.109 350.174 200.417C353.932 204.137 358.305 207.208 362.171 210.799C364.284 212.761 365.248 214.054 366.39 216.753C367.496 219.368 366.809 223.08 366.809 225.953C366.809 229.03 366.809 238.26 366.809 235.183C366.809 232.824 366.537 230.525 365.463 228.376C364.649 226.75 363.518 225.369 362.635 223.799C360.783 220.506 356.456 217.662 356.307 213.492C356.258 212.126 356.974 211.538 357.923 210.589C359.202 209.31 360.419 207.863 361.902 206.819C362.741 206.229 362.848 205.873 363.907 205.473C365.792 204.761 367.639 204.612 369.621 204.336C372.08 203.995 374.271 203.588 376.757 203.588C379.27 203.588 381.784 203.588 384.297 203.588C384.93 203.588 385.755 203.343 385.598 204.246C385.139 206.899 382.213 208.424 380.991 210.739C379.316 213.911 377.612 217.223 376.443 220.612C376.263 221.134 374.923 223.33 374.902 223.185C374.573 220.879 374.049 218.403 374.513 216.08C374.982 213.734 375.955 211.147 377.026 209.004C377.167 208.722 378.555 205.879 377.161 206.715C369.216 211.482 372.464 219.753 372.464 227.15C372.464 232.692 373.641 238.203 372.673 243.77C372.362 245.561 372.566 247.365 372.254 249.156C372.205 249.441 372.005 252.3 371.806 251.968C369.678 248.422 367.06 244.216 366.809 239.94C366.73 238.604 366.27 237.419 366.27 236.036C366.27 233.638 365.569 231.399 365.193 229.05C364.868 227.017 364.261 225.096 363.159 223.365C362.824 222.839 362.54 222.319 362.231 221.779C362.104 221.556 362.122 223.795 362.366 224.337C362.897 225.518 363.977 226.186 364.595 227.284C365.1 228.182 363.098 225.869 362.381 225.13C361.231 223.947 360.169 222.535 358.731 221.689C357.779 221.13 357.33 220.374 356.367 219.745C355.31 219.054 353.961 218.616 352.807 218.069C351.486 217.443 350.127 216.853 348.887 216.109C347.638 215.36 345.706 214.873 344.309 214.479C341.922 213.805 339.788 212.373 337.458 211.532C333.669 210.163 330.505 207.943 326.522 206.969C322.171 205.905 317.702 205.473 313.238 205.473C310.76 205.473 308.281 205.473 305.803 205.473C304.574 205.473 301.785 204.993 303.469 206.341C304.275 206.985 305.447 207.358 306.491 207.358C307.269 207.358 307.719 207.554 306.761 207.089C304.585 206.032 301.492 204.734 299.101 204.665C297.722 204.626 295.182 203.489 295.182 205.623C295.182 207.049 295.182 208.475 295.182 209.901C295.182 212.24 295.182 214.579 295.182 216.917C295.182 218.284 295.176 217.002 294.912 216.304C294.313 214.718 293.428 213.035 292.429 211.666C291.937 210.992 291.275 210.475 290.813 211.397C290.586 211.852 290.836 212.931 290.544 213.222C290.217 213.549 288.868 213.061 289.946 214.075C290.654 214.741 291.605 215.144 292.459 215.571C293.384 216.034 294.103 216.751 294.793 217.441C296.289 218.937 295.671 216.452 295.122 215.765C294.438 214.911 294.148 213.952 293.626 213.013C293.095 212.058 290.884 210.26 289.796 210.32C288.904 210.37 287.642 211.614 287.642 212.474C287.642 213.931 287.03 211.196 286.969 210.903C286.79 210.044 286.834 209.175 286.834 208.3C286.834 207.039 286.834 205.777 286.834 204.516C286.834 200.257 286.834 195.999 286.834 191.74C286.834 187.135 286.296 182.618 286.296 178.037C286.296 174.796 286.296 171.554 286.296 168.313C286.296 151.797 286.296 135.282 286.296 118.766C286.296 117.47 286.296 116.173 286.296 114.877C286.296 114.098 286.804 113.889 286.266 113.351C285.377 112.462 284.429 111.537 283.348 110.883C282.752 110.521 281.634 110.563 281.329 109.865C280.791 108.635 280.519 106.326 278.876 105.856C277.908 105.58 276.988 104.588 276.198 103.956C275.436 103.347 275.025 102.301 274.388 101.593C273.602 100.719 272.761 100.574 271.755 100.127C269.946 99.3226 269.006 97.0616 267.177 96.1472" stroke="white" stroke-width="10" stroke-linecap="round"/>
<path d="M288.988 115.535C289.873 115.633 291.124 117.449 291.666 118.093C292.461 119.037 293.403 120.248 294.359 121.025C296.455 122.728 298.628 124.304 300.702 125.917C302.293 127.155 303.737 128.423 305.264 129.672C306.121 130.373 306.802 131.35 307.718 131.961C309.112 132.891 309.806 133.929 310.934 135.058C312.406 136.529 313.67 138.12 315.168 139.56C316.681 141.016 318.51 142.149 320.015 143.6C321.075 144.621 322.319 145.445 323.396 146.442C324.529 147.491 325.553 148.661 326.687 149.733C330.01 152.877 333.398 155.868 337.129 158.559C339.579 160.327 341.789 162.017 344.609 163.197C346.765 164.099 348.145 165.199 349.86 166.593C351.092 167.594 351.821 168.874 352.672 170.183C353.874 172.033 355.562 173.633 356.98 175.314C359.393 178.173 362.185 180.715 364.655 183.527C366.986 186.182 369.877 188.057 372.464 190.409C374.111 191.906 375.354 193.623 376.503 195.51C376.827 196.042 380.354 201.689 377.819 199.788C376.56 198.844 375.134 198.364 373.81 197.544C371.515 196.122 369.429 194.145 367.288 192.488C363.416 189.492 358.676 187.408 355.021 184.2C351.426 181.046 347.907 177.955 344.519 174.566C341.924 171.972 339.634 168.78 336.77 166.488C336.253 166.075 335.611 165.586 336.291 166.667C337.541 168.656 339.239 170.264 340.899 171.903C344.843 175.799 349.143 179.393 353.196 183.183C355.58 185.413 357.611 187.949 359.927 190.244C361.469 191.771 363.27 192.975 364.924 194.373C365.949 195.239 369.188 196.213 366.27 195.241" stroke="white" stroke-width="10" stroke-linecap="round"/>
<path d="M284.68 108.265C284.68 109.862 287.374 111.767 288.45 112.842C290.207 114.6 292.224 116.488 294.374 117.689C296.087 118.647 297.767 120.514 299.116 121.863C300.692 123.439 302.474 124.712 304.068 126.306C305.181 127.419 307.107 129.241 308.586 129.867C309.453 130.234 310.156 131.197 310.8 131.841C311.121 132.163 311.615 132.27 311.981 132.514C312.304 132.729 312.255 133.135 312.685 133.307C313.526 133.644 314.348 134.778 315.108 135.327C316.158 136.085 317.426 136.972 318.339 137.885C319.65 139.195 321.103 140.832 322.708 141.864C330.048 146.583 336.193 152.73 343.367 157.662C344.855 158.685 346.117 160.274 347.69 161.102C348.389 161.47 349.632 162.534 350.114 163.137C350.688 163.855 351.832 164.376 352.537 165.082C355.359 167.903 359.071 169.581 361.902 172.412C368.573 179.083 376.348 184.282 383.654 190.259C385.799 192.014 388.281 193.405 390.176 195.3C391.835 196.959 394.631 197.783 396.145 199.549C398.449 202.237 396.704 205.968 394.066 207.897C392.756 208.854 391.527 210.405 390.386 211.547C389.243 212.69 388.002 214.287 387.214 215.706C386.33 217.298 384.856 218.699 383.923 220.298C382.874 222.097 381.288 223.341 380.138 225.13C379.738 225.752 379.38 225.683 379.525 224.861C379.715 223.786 380.553 222.781 381.111 221.869C383.029 218.73 384.234 215.181 386.406 212.205C387.806 210.287 387.796 207.425 388.486 205.219C389.72 201.27 387.271 197.382 383.983 195.45C381.562 194.028 379.138 192.682 376.667 191.351C375.471 190.707 375.136 191.553 374.887 192.548" stroke="white" stroke-width="10" stroke-linecap="round"/>
<path d="M441 209C441 210.924 441.269 212.724 441.269 214.655C441.269 216.649 442.077 218.491 442.077 220.444C442.077 221.482 443.656 221.317 444.501 221.716C446.831 222.815 449.318 223.8 451.771 224.618C454.871 225.651 457.869 226.638 460.911 227.969C465.505 229.979 470.55 230.632 475.198 232.292C476.809 232.868 477.58 229.176 477.621 228.059C477.693 226.136 477.083 224.418 477.083 222.598C477.083 221.221 474.743 219.646 473.852 218.903C472.16 217.494 470.683 216.71 468.72 215.852C465.727 214.542 462.507 213.726 459.371 212.83C457.916 212.414 456.363 212.153 454.868 211.827C453.935 211.625 453.052 211.445 452.1 211.423C451.286 211.405 450.664 210.885 449.886 210.885C449.231 210.885 446.914 210.379 446.924 210.735C447.004 213.47 449.101 213.971 451.382 214.864C452.957 215.48 454.471 216.001 456.199 216.001C457.41 216.001 459.387 217.312 460.508 217.736C463.016 218.688 465.432 220.133 467.808 221.387C468.45 221.725 468.798 222.264 469.319 222.733C469.811 223.176 470.449 223.429 470.92 223.9C471.421 224.402 468.856 223.559 468.646 223.481C466.055 222.527 463.39 221.771 460.747 220.968C458.709 220.348 456.901 219.207 454.987 218.29C453.741 217.693 452.178 217.448 451.173 216.48C450.264 215.605 448.969 215.069 447.896 214.415C446.245 213.41 444.782 212.243 443.423 210.885" stroke="white" stroke-width="10" stroke-linecap="round"/>
<path d="M476.673 234.286C476.673 237.517 476.943 240.795 476.943 243.98C476.943 245.057 476.943 246.134 476.943 247.211C476.943 248.252 477.426 249.188 477.481 250.173C477.709 254.276 477.481 258.449 477.481 262.56" stroke="white" stroke-width="10" stroke-linecap="round"/>
<path d="M376.772 228.631C376.673 230.509 376.371 231.462 377.37 233.268C378.357 235.051 379.886 238.074 381.739 239.133C382.186 239.388 382.199 240.055 382.756 240.27C383.174 240.431 384.05 240.711 383.609 239.925C383.164 239.134 382.696 238.794 382.696 237.846C382.696 237.388 382.544 236.86 382.367 236.44C382.12 235.853 380.705 234.329 381.828 235.093C382.606 235.622 383.345 236.609 384.177 236.978C386.91 238.193 387.422 239.291 388.755 241.691C389.543 243.109 389.159 245.619 389.159 247.211C389.159 248.378 389.159 249.545 389.159 250.711C389.159 251.893 388.754 252.362 388.351 253.27C387.532 255.113 387.878 252.701 388.082 251.938C388.352 250.925 388.62 250.152 388.62 249.096C388.62 247.282 386.84 245.978 385.509 244.922C383.768 243.541 381.395 242.22 379.734 244.309C378.532 245.82 374.611 253.26 379.884 251.624C381.615 251.087 382.736 249.307 383.115 247.6C383.543 245.675 381.298 244.537 379.869 243.875C375.912 242.041 374.013 244.456 372.194 247.69C371.184 249.486 371.352 250.925 371.117 252.806C371.087 253.05 366.455 252.591 365.866 252.611C364.643 252.653 363.504 252.77 362.56 253.614C362.513 253.656 361.702 254.404 361.857 254.466C362.381 254.676 364.627 254.085 364.655 254.81C364.673 255.285 363.584 256.399 363.652 256.501C364.237 257.378 367.758 257.174 368.709 257.174C370.426 257.174 372.111 257.127 373.81 257.384C374.037 257.418 374.565 257.342 374.767 257.443C374.869 257.494 374.433 257.673 374.543 257.698C375.599 257.932 376.872 257.591 377.909 257.384C378.847 257.196 379.946 257.325 380.811 256.905C382.039 256.308 382.838 255.289 384.312 255.289C385.062 255.289 384.85 255.85 384.85 256.486C384.85 257.569 384.204 257.821 383.504 258.52C381.973 260.052 379.009 259.059 376.981 259.059C375.558 259.059 373.847 259.309 372.464 258.924C371.545 258.669 369.152 258.898 368.694 257.982" stroke="white" stroke-width="10" stroke-linecap="round"/>
<path d="M301.644 249.634C301.644 251.941 301.649 254.607 301.36 256.92C301.153 258.575 300.667 259.995 302.841 260.39C304.627 260.715 306.385 261.432 308.226 261.767C309.068 261.92 309.677 262.556 310.53 262.769C311.785 263.083 313.099 263.238 314.285 263.756C316.54 264.743 318.824 266.768 321.301 267.122C323.192 267.392 325.97 267.427 327.629 268.349C328.294 268.718 329.435 268.521 330.187 268.693C331.508 268.995 332.872 269.091 334.212 269.426C336.105 269.899 338.424 270.639 340.42 270.354C341.669 270.175 343.304 269.633 343.98 268.484C344.451 267.684 345.558 267.756 346.06 267.003C346.583 266.217 347.646 266.002 348.229 265.192C348.491 264.829 349.498 264.002 349.276 263.502C349.009 262.901 346.901 262.334 346.284 262.29C343.368 262.082 339.651 261.827 336.919 260.734C335.64 260.223 333.868 259.992 332.491 259.882C331.111 259.771 329.796 259.13 328.452 259.059C324.943 258.874 321.939 257.417 318.549 256.695C315.761 256.102 313.258 254.636 310.47 254.003C309.277 253.731 307.946 252.866 306.76 252.866" stroke="white" stroke-width="10" stroke-linecap="round"/>
<path d="M242.673 134.115C242.541 135.298 241.549 136.867 241.177 138.05C240.959 138.743 240.519 140.856 240.519 140.129C240.519 139.696 240.44 139.169 240.579 138.753C241.113 137.15 243.211 135.139 243.211 133.442C243.211 132.752 244.276 131.169 244.767 130.555C245.097 130.142 244.727 129.114 244.842 128.595C244.974 128.003 245.252 127.557 245.381 126.979C245.662 125.714 244.643 127.679 244.498 128.131C244.196 129.071 243.859 130.114 243.211 130.884C242.027 132.29 241.581 134.243 240.519 135.731C240.306 136.029 239.459 137.703 239.442 137.287C239.394 136.15 240.362 135.351 240.728 134.325C241.352 132.577 242.454 130.876 243.6 129.403C244.245 128.574 245.206 127.676 245.635 126.71C245.812 126.311 246.443 125.241 246.443 125.678C246.443 126.2 246.005 127.192 245.844 127.712C245.635 128.393 245.096 128.887 245.096 129.642C245.096 130.26 245.096 128.405 245.096 127.787C245.096 127.178 246.125 126.007 245.515 126.007C245.284 126.007 244.449 127.952 244.348 128.191C243.963 129.105 244.985 126.725 245.246 126.575C246.118 126.077 245.904 124.389 245.904 127.159C245.904 127.912 245.904 129.418 245.904 129.418C245.904 129.418 245.904 128.241 245.904 127.652C245.904 126.979 245.904 126.306 245.904 125.633C245.904 125.059 245.44 126.636 245.381 126.964C245.233 127.775 245.291 127.48 245.366 126.845C245.422 126.363 246.164 125.648 246.443 125.229" stroke="white" stroke-width="10" stroke-linecap="round"/>
<path d="M246.173 126.037C246.173 131.857 245.096 137.349 245.096 143.121C245.096 148.012 244.289 152.946 244.289 157.946C244.289 159.8 244.019 161.646 244.019 163.466C244.019 165.164 244.289 160.078 244.289 158.38C244.289 155.436 243.75 152.585 243.75 149.613C243.75 145.521 244.289 141.556 244.289 137.481C244.289 136.399 245.158 135.592 245.351 134.534C245.392 134.306 245.559 133.387 245.785 133.322C246.084 133.237 246.671 132.997 246.443 132.769" stroke="white" stroke-width="10" stroke-linecap="round"/>
<path d="M246.712 133.846C246.712 147.614 246.712 161.382 246.712 175.15C246.712 182.335 246.712 189.521 246.712 196.707C246.712 198.911 246.712 201.115 246.712 203.319C246.712 203.786 246.977 205.389 246.712 205.742C246.221 206.397 243.681 205.827 243.062 205.473C242.604 205.211 242.091 204.807 241.596 204.665C239.995 204.208 238.837 202.773 237.437 201.973C236.709 201.557 236.03 201.322 235.283 200.895C234.12 200.231 234.03 198.952 234.056 197.544C234.105 194.954 235.402 192.301 236.001 189.795C236.636 187.141 238.14 184.763 238.634 182.046C239.103 179.467 240.117 177.206 240.235 174.506C240.29 173.231 240.693 169.503 240.19 170.677C239.658 171.917 239.687 173.623 239.427 174.94C239.016 177.021 238.508 179.087 238.155 181.178C237.525 184.909 237.557 188.663 237.557 192.428C237.557 193.505 237.557 194.582 237.557 195.66C237.557 197.26 237.557 192.458 237.557 190.857C237.557 185.24 236.749 179.695 236.749 174.088C236.749 172.51 236.595 170.843 236.884 169.285C236.938 168.99 236.986 168.26 237.033 169.136C237.135 171.02 237.382 172.898 237.557 174.776C238.097 180.602 239.442 186.547 239.442 192.398C239.442 193.432 239.41 194.428 239.232 195.45C238.926 197.211 239.17 193.559 239.157 193.176C239.046 189.79 238.634 186.466 238.634 183.063C238.634 180.121 238.634 177.179 238.634 174.237" stroke="white" stroke-width="10" stroke-linecap="round"/>
<path d="M238.095 182.046C237.942 177.62 237.213 173.17 236.883 168.747C236.678 165.993 236.801 163.36 237.003 160.639C237.292 156.737 236.922 152.652 237.691 148.806C238.055 146.987 238.587 145.177 239.172 143.42C239.511 142.404 239.683 141.299 240.13 140.323C240.38 139.777 240.825 139.324 240.788 138.693C240.747 137.998 239.707 137.796 239.172 137.945C237.905 138.297 237.004 139.198 236.42 140.308C234.927 143.144 233.701 145.954 232.44 148.791C230.574 152.99 228.114 157.044 225.873 161.028C223.875 164.58 221.54 168.712 218.647 171.604C217.296 172.955 216.647 174.785 215.207 176.062C213.403 177.662 211.721 179.521 210.36 181.508C207.436 185.774 204.221 189.858 201.324 194.163C199.642 196.664 198.169 199.186 196.342 201.584C195.065 203.261 193.355 204.642 192.199 206.416C191.731 207.132 191.314 208.207 190.822 208.839C190.023 209.867 189.571 211.031 188.683 212.055C187.83 213.039 187.079 214.143 186.275 215.167C184.854 216.975 183.544 219.094 181.951 220.687C178.929 223.71 177.692 227.616 175.354 230.994C175.004 231.499 172.129 233.594 172.826 234.136C173.581 234.724 175.373 234.49 176.296 234.57C177.225 234.651 178.054 234.824 179.004 234.824C180.366 234.824 182.046 235.576 183.432 235.961C185.374 236.5 187.813 236.419 189.626 237.248C191.72 238.205 194.278 238.039 196.507 238.534C198.799 239.044 201.179 239.439 203.359 240.269C205.223 240.98 207.288 241.245 209.148 241.96C211.375 242.816 213.836 243.447 216.164 244.099C217.715 244.533 219.319 244.686 220.861 245.176C222.099 245.57 223.618 245.396 224.766 246.014C226.661 247.034 229.632 247.54 231.767 247.764C233.531 247.95 235.544 248.518 237.227 249.036C238.161 249.323 239.261 249.15 240.189 249.425C240.731 249.585 241.33 249.904 241.865 249.904C243.101 249.904 243.939 249.385 244.019 248.019C244.065 247.246 244.158 245.122 244.827 244.787" stroke="white" stroke-width="10" stroke-linecap="round"/>
<path d="M245.767 222.332C245.767 226.348 245.767 230.364 245.767 234.38C245.767 237.534 245.767 240.688 245.767 243.842C245.767 244.639 245.782 242.24 245.926 241.455C246.185 240.041 246.58 238.656 246.835 237.239C247.025 236.189 247.184 235.111 247.296 234.05C247.379 233.261 247.651 232.482 247.705 231.698C247.813 230.126 247.71 228.51 247.71 226.936C247.71 226.185 247.71 225.435 247.71 224.685C247.71 224.559 247.608 224.195 247.608 224.321C247.608 224.726 247.513 225.105 247.506 225.503C247.482 226.769 247.46 228.025 247.409 229.288C247.377 230.092 247.242 230.884 247.205 231.686C247.167 232.487 247.253 233.293 247.148 234.09C246.965 235.48 246.994 236.984 246.994 238.387C246.994 239.64 246.79 240.878 246.79 242.12C246.79 245.628 245.507 248.961 246.284 252.457C246.47 253.296 246.878 252.26 246.972 251.895C247.075 251.493 246.994 250.957 246.994 250.542C246.994 250.033 246.79 249.706 246.79 249.212C246.79 248.529 246.777 247.87 246.972 247.212C247.079 246.849 246.39 246.968 246.17 246.928C245.329 246.773 244.55 246.404 243.772 246.058C243.002 245.716 242.213 245.33 241.527 244.837C241.116 244.54 240.848 244.172 240.391 243.916C239.058 243.17 237.393 243.001 235.998 242.382C235.357 242.097 234.61 241.964 233.924 241.768C232.812 241.45 231.67 241.187 230.571 240.847C229.078 240.386 227.783 240.126 226.229 239.949C222.218 239.494 218.297 238.323 214.363 237.494C213.57 237.327 212.818 237.187 212.062 236.858C211.26 236.51 210.269 236.495 209.504 236.091C208.627 235.626 207.529 235.578 206.629 235.113C205.433 234.496 204.113 233.743 203.213 232.721C202.021 231.366 201.259 229.993 201.088 228.163C200.821 225.31 202.585 222.561 203.702 220.082C204.344 218.657 205.103 217.69 206.305 216.684C207.418 215.751 208.68 215.031 210.01 214.456C210.131 214.404 211.681 213.642 211.579 214.115C211.324 215.287 210.182 216.309 209.351 217.093C208.483 217.911 207.515 218.679 206.907 219.724C206.353 220.676 205.969 221.743 205.521 222.747C204.708 224.568 203.62 226.589 203.526 228.618C203.469 229.831 203.418 233.475 203.418 232.26C203.418 229.322 203.606 226.622 205.469 224.185C205.805 223.746 206.194 223.352 206.521 222.906C206.544 222.875 206.987 222.2 206.998 222.378C207.02 222.724 206.862 223.061 206.737 223.372C206.492 223.979 206.317 224.603 206.18 225.242C205.715 227.404 205.53 230.016 205.896 232.209C205.952 232.549 206.064 232.912 206.078 233.255C206.083 233.384 206.035 233.001 206.009 232.874C205.864 232.148 205.582 231.461 205.407 230.743C205.031 229.2 204.813 227.708 204.85 226.117C204.878 224.901 205.736 224.02 206.453 223.105C207.891 221.269 210.183 220.296 212.465 220.19C213.283 220.152 213.989 220.649 214.647 221.088C214.891 221.25 214.569 220.931 214.522 220.9C214.158 220.664 213.713 220.543 213.295 220.446C213.173 220.417 211.764 220.133 212.334 220.19C213.33 220.29 214.311 220.71 215.318 220.838C216.359 220.97 217.405 220.953 218.449 221.008C218.862 221.03 219.253 221.065 219.597 221.258C220.568 221.805 221.769 222.13 222.808 222.514C223.76 222.866 224.733 223.214 225.718 223.48C226.519 223.697 227.313 223.954 228.093 224.196C228.885 224.442 229.61 224.828 230.4 225.072C230.697 225.163 230.73 220.589 230.73 220.184C230.73 216.983 230.403 213.794 230.986 210.62C231.329 208.752 231.738 207.013 232.492 205.261C233.106 203.832 233.85 202.989 235.151 202.226C235.49 202.028 236.673 202.079 236.799 202.584C236.826 202.692 236.031 202.721 235.879 202.806C235.089 203.248 234.336 203.549 233.515 203.914C232.863 204.204 233.155 204.404 233.685 204.579C234.338 204.795 234.983 204.991 235.674 205.034C236.045 205.056 237.159 205.045 236.788 205.045C235.756 205.045 234.695 205.248 233.685 205.454C232.672 205.661 234.393 205.655 234.617 205.636C234.71 205.628 235.647 205.466 235.31 205.466C234.619 205.466 233.893 205.598 233.23 205.784C233.037 205.838 231.996 206.105 231.963 206.403C231.959 206.439 233.309 206.281 233.389 206.273C234.065 206.2 234.742 206.179 235.418 206.119C235.464 206.115 236.467 206.071 235.97 206.17C235.052 206.354 233.96 206.375 233.026 206.375C232.522 206.375 234.02 206.21 234.515 206.113C234.869 206.045 235.197 205.971 235.56 205.966C236.21 205.957 235.374 205.966 235.208 205.966C233.77 205.966 232.59 206.414 231.196 206.676C230.589 206.79 229.984 206.879 229.366 206.886C229.233 206.888 228.97 206.826 228.877 206.954C228.153 207.951 226.846 208.528 226.286 209.648C225.718 210.785 225.922 212.407 225.922 213.632C225.922 214.842 226.026 216.105 225.797 217.297C225.623 218.205 225.883 219.089 225.922 219.957C225.929 220.099 225.688 219.502 225.678 219.485C225.235 218.768 224.619 218.181 223.91 217.729C222.692 216.951 221.266 216.634 219.955 216.058C219.692 215.943 219.291 215.706 218.995 215.706C218.634 215.706 219.448 216.278 219.739 216.49C220.77 217.24 221.875 217.809 223.058 218.28C223.931 218.629 224.881 218.857 225.729 219.264C226.417 219.594 224.545 218.969 224.348 218.917C224.034 218.834 223.638 218.721 223.308 218.752C223.17 218.765 224.162 219.491 224.206 219.519C224.875 219.957 225.569 220.262 226.331 220.491C226.392 220.509 227.262 220.811 227.212 220.662C227.043 220.153 226.217 219.752 225.809 219.502C224.617 218.773 223.362 218.255 222.035 217.826C219.346 216.955 216.564 216.285 213.931 215.251C213.896 215.238 212.776 214.807 212.874 214.979C213.122 215.413 214.278 215.249 214.636 215.206C215.761 215.072 216.832 214.685 217.898 214.319C218.297 214.183 219.214 213.6 219.125 214.013C219.007 214.565 217.509 214.936 217.125 215.081C215.69 215.623 214.23 216.163 212.715 216.434C212.426 216.485 211.306 216.782 210.999 216.581C210.895 216.514 211.177 216.407 211.283 216.343C212.239 215.761 213.231 215.229 214.204 214.678C220.635 211.03 226.785 206.833 233.361 203.448C234.118 203.059 234.45 202.91 235.191 202.584C235.397 202.494 235.603 202.403 235.81 202.317C235.949 202.26 236.273 202.046 236.242 202.192C236.19 202.437 235.93 202.583 235.754 202.76C234.989 203.53 234.16 204.211 233.236 204.784C230.557 206.443 227.454 207.417 224.445 208.273C222.466 208.835 220.462 209.35 218.432 209.688C217.735 209.804 219.946 208.902 219.978 208.887C222.343 207.764 224.67 206.577 226.962 205.312C228.75 204.326 230.588 203.093 232.571 202.522C232.899 202.427 232.567 202.659 232.526 202.692C231.775 203.304 231.03 203.91 230.298 204.545C227.431 207.031 224.556 209.508 221.694 212.001C220.891 212.7 219.888 213.577 219.08 214.308C218.954 214.422 217.861 215.249 217.807 215.553C217.777 215.721 218.144 215.487 218.301 215.422C219.181 215.058 220.015 214.589 220.819 214.081C223.405 212.448 225.815 210.533 228.076 208.477C229.113 207.535 230.293 206.537 231.048 205.335C231.726 204.257 229.357 205.622 229.332 205.636C226.925 206.914 224.65 208.402 222.171 209.552C221.258 209.975 220.603 210.256 219.677 210.592C219.405 210.69 219.13 210.781 218.853 210.864C218.653 210.925 218.176 211.188 218.239 210.989C218.319 210.738 218.688 210.712 218.909 210.569C220.383 209.612 221.767 208.521 223.16 207.455C226.197 205.131 229.3 202.854 232.173 200.328C232.35 200.173 235.11 197.951 234.128 197.345C233.776 197.127 233.205 197.256 232.872 197.328C231.291 197.67 229.787 198.44 228.366 199.18C221.596 202.708 215.389 207.133 208.919 211.148C208.372 211.488 209.898 210.311 210.402 209.91C213.433 207.497 216.502 205.134 219.546 202.738C222.343 200.536 225.043 198.197 227.934 196.117C228.058 196.028 230.481 194.126 229.787 195.623C228.452 198.5 225.991 201.134 223.802 203.357C219.813 207.41 215.185 210.842 210.351 213.819C207.81 215.385 205.169 216.854 202.44 218.07C202.356 218.108 201.226 218.587 200.952 218.638C200.444 218.733 201.572 217.805 201.957 217.462C210.486 209.863 219.905 203.315 228.349 195.611C229.43 194.625 230.473 193.657 231.469 192.588C231.578 192.47 232.965 191.137 232.753 190.645C232.485 190.023 228.266 193.759 228.246 193.776C221.319 199.766 214.396 205.847 207.868 212.274C207.487 212.649 206.497 213.754 207.487 212.569C209.935 209.639 212.651 206.929 215.255 204.141C219.272 199.842 223.249 195.519 227.081 191.054C229.393 188.361 231.648 185.633 234.219 183.183C234.334 183.074 234.805 182.633 234.969 182.433C235.191 182.163 234.419 182.862 234.162 183.098C230.987 186.011 227.691 188.768 224.371 191.514C219.434 195.597 204.603 207.805 209.357 203.511C211.24 201.81 213.272 200.257 215.244 198.663C219.577 195.162 223.91 191.654 228.013 187.883C231.089 185.056 234.039 182.081 236.765 178.915C236.792 178.884 238.888 176.553 237.481 177.46C234.402 179.447 231.661 182.009 228.752 184.229C223.56 188.191 218.123 191.802 212.726 195.475C209.463 197.696 206.13 199.878 203.066 202.374C202.775 202.611 202.374 202.772 202.219 203.113C202.195 203.165 202.324 203.065 202.372 203.033C202.637 202.86 203.629 202.155 203.782 202.044C210.657 197.048 217.167 191.395 222.978 185.195C225.184 182.841 227.273 180.39 229.366 177.938C229.488 177.795 229.818 177.346 229.741 177.517C229.447 178.173 228.801 178.953 228.417 179.506C225.983 183.005 222.822 185.767 219.353 188.224C216.328 190.365 213.021 191.772 209.715 193.384C208.215 194.115 209.336 194.088 210.237 193.793C213.858 192.609 217.305 190.389 220.495 188.36C223.246 186.61 226.034 184.763 228.514 182.637C228.885 182.319 231.702 179.97 231.162 179.131C231.074 178.995 230.605 178.931 230.514 178.949C228.121 179.419 225.466 181.025 223.354 182.046C221.602 182.893 219.419 183.964 217.648 184.928C217.35 185.089 216.537 185.573 216.875 185.587C217.122 185.597 217.656 185.438 217.818 185.382C219.283 184.882 220.696 184.188 222.086 183.518C225.329 181.957 228.549 180.242 231.548 178.245C232.107 177.872 234.401 176.431 233.855 175.341C233.475 174.58 231.135 174.874 230.514 174.892C229.279 174.927 227.824 174.971 226.729 175.625C226.11 175.994 226.521 176.233 227.059 176.233C228.75 176.233 230.47 175.52 231.94 174.744C232.048 174.687 233.509 173.968 233.446 173.641C233.39 173.348 231.808 173.705 231.713 173.727C231.16 173.851 230.761 173.978 230.224 174.17C229.986 174.255 228.827 174.894 228.525 174.755C228.443 174.717 230.733 172.393 230.889 172.232C231.432 171.671 231.754 171.31 232.264 170.72C232.612 170.319 233.211 169.763 233.378 169.22C233.824 167.773 228.616 169.495 228.104 169.697C227.788 169.823 226.123 170.282 226.161 170.857C226.199 171.437 228.328 171.311 228.604 171.306C229.834 171.282 231.249 171.043 232.162 170.129C232.611 169.68 232.486 168.984 232.014 168.601C231.267 167.994 229.955 167.957 229.048 167.936C227.768 167.906 226.76 168.311 225.854 169.226C225.247 169.839 222.73 174.004 225.166 173.778C226.361 173.667 227.596 172.86 228.604 172.266C228.944 172.066 229.475 171.732 229.809 171.505C230.003 171.373 230.561 171.027 230.326 171.027C230.13 171.027 229.582 171.257 229.531 171.277C228.227 171.799 226.96 172.421 225.695 173.028C222.262 174.672 218.798 176.347 215.613 178.443C214.397 179.244 213.615 179.83 212.539 180.773C211.917 181.319 210.988 182.074 210.669 182.904C210.301 183.863 211.77 183.539 212.17 183.439C213.894 183.005 215.51 182.118 217.057 181.268C219.466 179.944 221.75 178.418 224.092 176.983C224.516 176.723 225.461 176.152 225.934 175.892C226.103 175.799 226.273 175.707 226.451 175.63C226.716 175.516 226.782 175.51 226.593 175.772C225.21 177.689 223.245 179.349 221.512 180.927C218.898 183.307 216.215 185.621 213.556 187.951C212.696 188.705 210.086 190.916 210.863 190.076C212.136 188.698 213.612 187.447 214.988 186.178C217.599 183.769 220.275 181.436 223.035 179.199C223.76 178.612 225.976 176.905 225.263 177.506C223.725 178.801 222.233 180.161 220.739 181.506C214.242 187.359 208.014 193.498 201.474 199.305C201.286 199.473 199.779 200.899 201.042 200.021C202.854 198.763 204.521 197.282 206.214 195.873C207.875 194.49 209.547 192.786 211.442 191.713C211.607 191.62 211.964 191.385 211.812 191.798C211.491 192.671 210.703 193.54 210.169 194.27C208.62 196.388 206.992 198.444 205.305 200.453C203.518 202.581 201.571 204.601 199.9 206.824C199.53 207.316 199.501 207.383 199.218 207.835C199.147 207.95 198.904 208.239 199.031 208.193C199.146 208.152 199.462 207.941 199.508 207.909C200.41 207.281 201.277 206.598 202.168 205.954C204.04 204.6 205.966 203.361 207.93 202.147C208.405 201.853 208.651 201.702 209.078 201.408C209.172 201.343 209.452 201.143 209.362 201.215C207.845 202.421 206.251 203.53 204.668 204.647C201.593 206.818 198.607 209.103 195.598 211.364C195.023 211.797 193.669 212.809 193.001 213.302C192.599 213.6 191.311 214.301 191.802 214.206C192.125 214.143 192.396 213.924 192.689 213.774C194.036 213.08 195.376 212.37 196.718 211.666C199.602 210.15 202.477 208.618 205.361 207.102C205.824 206.859 206.84 206.324 207.373 206.057C207.438 206.024 208.238 205.546 208.39 205.613C208.542 205.681 208.166 205.859 208.038 205.966C207.128 206.726 206.191 207.454 205.282 208.216C202.438 210.6 199.706 213.106 196.979 215.621C194.918 217.522 192.845 219.425 190.631 221.15C190.53 221.229 190.219 221.453 190.313 221.366C190.918 220.809 191.63 220.327 192.297 219.855C197.016 216.514 201.9 213.36 206.782 210.262C209.995 208.223 206.041 210.738 208.464 209.194C208.557 209.134 208.645 209.066 208.743 209.017C209.008 208.885 208.27 209.375 208.032 209.552C205.503 211.434 202.942 213.267 200.338 215.047C197.316 217.112 194.258 219.121 191.154 221.059C189.513 222.084 187.757 223.443 185.892 224.06C185.652 224.139 185.665 224.049 185.812 223.878C186.61 222.957 187.644 222.17 188.574 221.4C190.735 219.613 192.987 217.956 195.246 216.297C195.809 215.884 196.63 215.285 197.189 214.82C197.302 214.726 198.067 214.167 198.019 213.882C197.929 213.339 194.892 214.966 194.825 215.001C191.536 216.745 188.362 218.756 185.301 220.872C182.925 222.514 180.502 224.265 178.504 226.367C178.094 226.799 176.991 227.93 178.311 227.765C180.205 227.528 182.125 226.261 183.766 225.39C186.517 223.93 189.184 222.318 191.933 220.855C192.274 220.673 193.071 220.24 193.507 220.082C194.303 219.794 193.421 220.696 193.336 220.798C190.709 223.976 187.741 226.87 184.903 229.857C184.665 230.107 184.149 230.645 183.892 230.97C183.595 231.345 183.992 231.115 184.153 231.027C186.041 230.005 187.927 228.995 189.836 228.01C192.442 226.664 195.012 225.235 197.496 223.674C198.71 222.911 200.104 222.164 201.139 221.156C201.541 220.765 200.047 221.44 199.542 221.685C196.765 223.031 194.154 224.59 191.637 226.379C189.562 227.853 187.619 229.505 185.54 230.97C184.3 231.844 186.399 230.305 186.494 230.249C190.988 227.596 196.162 226.217 200.497 223.259C201.094 222.851 200.608 222.894 200.247 223.173C198.523 224.51 197.175 226.483 195.979 228.277C195.368 229.193 194.885 229.996 194.325 230.942C193.921 231.625 193.23 232.547 193.098 233.38C192.981 234.117 193.689 234.22 194.234 234.153C195.232 234.029 196.139 233.593 197.047 233.192C197.291 233.085 198.951 232.181 199.213 232.516C199.48 232.857 199.239 234.127 199.286 234.556C199.348 235.113 199.589 235.386 199.156 234.846C197.858 233.228 196.541 231.423 194.7 230.391C194.224 230.124 193.705 229.948 193.16 229.908C192.725 229.875 193.254 230.272 193.359 230.379C193.975 231.009 194.564 231.663 195.178 232.294C195.578 232.706 196.167 233.126 196.473 233.619C196.515 233.685 195.434 233.378 195.405 233.369C194.286 233.012 193.156 232.745 192.007 232.505C190.987 232.291 189.962 232.103 188.949 231.857C188.877 231.839 187.788 231.56 188.449 231.686C189.402 231.868 190.286 232.339 191.245 232.459" stroke="white" stroke-width="6" stroke-linecap="round"/>
<path d="M164.445 238.392C165.918 237.95 166.813 236.863 168.002 236.04C168.138 235.946 168.233 235.815 168.377 235.733C168.542 235.639 168.394 235.861 168.383 235.863C168.269 235.886 169.04 234.741 169.105 234.653C169.515 234.101 170.046 233.665 170.474 233.13C171.09 232.361 171.753 231.438 172.225 230.573C172.595 229.893 173.129 229.05 173.651 228.47C174.022 228.058 174.32 227.509 174.623 227.043C175.064 226.364 175.708 225.879 176.186 225.242C176.62 224.663 176.87 224.026 177.237 223.406C177.417 223.102 177.593 222.777 177.794 222.486C177.966 222.238 177.901 221.984 178.004 221.719C178.894 219.43 179.433 216.929 180.891 214.911C181.366 214.252 181.76 213.531 182.249 212.87C182.773 212.163 183.465 211.553 184.085 210.933C185.103 209.915 186.107 208.871 186.955 207.705C187.425 207.058 187.824 206.328 188.279 205.659C188.722 205.007 189.226 204.341 189.609 203.658C190.284 202.452 190.968 201.275 191.757 200.135C192.31 199.336 192.927 198.632 193.399 197.782C194.129 196.469 195.085 195.417 196.076 194.304C197.154 193.093 197.96 191.745 198.61 190.264C199.069 189.219 199.717 188.285 200.19 187.252C200.397 186.801 200.592 186.313 200.963 185.962C201.144 185.791 201.515 185.694 201.736 185.553C202.945 184.783 203.971 184.123 204.85 182.95" stroke="white" stroke-width="6" stroke-linecap="round"/>
<path d="M203.009 184.382C203.153 183.587 204.121 182.69 204.623 182.132C205.405 181.262 206.264 180.465 207.021 179.574C207.541 178.962 208.267 178.597 208.839 178.04C209.418 177.477 209.983 176.893 210.584 176.352C212.363 174.751 213.492 172.646 215.085 170.885C216.166 169.69 217.067 168.438 217.949 167.089C219.013 165.462 220.196 163.913 221.296 162.31C223.09 159.697 224.821 157.044 226.616 154.433C227.153 153.651 227.693 152.801 228.116 151.956C228.442 151.303 228.991 150.371 228.991 149.62C228.991 149.529 228.632 150.053 228.582 150.137C228.343 150.535 228.145 150.907 227.968 151.336C227.638 152.137 227.21 152.653 226.576 153.24C225.741 154.013 224.909 154.791 224.195 155.683C223.642 156.374 223.003 157.065 222.524 157.809C222.023 158.587 221.347 159.208 220.91 160.037C220.441 160.925 219.874 161.796 219.296 162.617C218.682 163.487 218.252 164.482 217.614 165.333C216.711 166.537 215.788 167.728 214.886 168.93C213.984 170.133 213.249 171.454 212.369 172.675C211.463 173.932 210.724 175.327 209.862 176.619C208.984 177.937 208.272 179.374 207.402 180.705C206.591 181.945 205.886 183.257 205.236 184.587C204.981 185.11 204.779 185.619 204.395 186.064C204.212 186.277 203.851 187.003 203.873 186.723C203.921 186.097 204.707 185.252 205.072 184.797C205.901 183.76 207.004 182.923 208.044 182.109C210.194 180.425 212.008 178.364 214.17 176.676C217.036 174.439 219.454 171.682 222.404 169.55C224.003 168.394 225.621 167.252 227.104 165.947C228.528 164.694 229.822 163.308 231.185 161.992C232.044 161.161 232.939 160.366 233.753 159.491C233.825 159.414 233.358 161.235 233.276 161.508C232.699 163.433 231.96 165.238 230.935 166.97C230.823 167.158 229.871 169.051 230.292 167.896C230.837 166.404 231.379 164.884 231.81 163.355C231.988 162.723 232.153 162.062 232.162 161.4C232.167 161.041 231.965 161.656 231.957 161.673" stroke="white" stroke-width="6" stroke-linecap="round"/>
<path d="M239.834 134.77C239.255 135.277 238.681 135.734 238.209 136.35C237.461 137.326 236.898 138.442 236.208 139.459C234.885 141.409 234.049 143.597 232.764 145.557C231.739 147.121 230.318 148.352 229.099 149.75C228.203 150.778 227.319 151.801 226.479 152.876C225.597 154.005 224.737 155.169 223.797 156.252C222.892 157.294 222.428 158.555 221.728 159.707C221.371 160.295 221.092 160.863 220.603 161.366C220.266 161.713 220.35 161.451 220.444 161.037C220.671 160.04 221.199 159.013 221.683 158.127C222.996 155.724 224.516 153.578 226.28 151.506C227.416 150.173 228.39 148.712 229.502 147.352C230.023 146.716 230.425 145.986 230.878 145.306C231.534 144.322 232.37 143.393 233.083 142.442C234.325 140.786 235.657 138.913 236.458 136.998C236.508 136.88 236.979 135.723 236.754 135.867C236.331 136.139 236.008 136.792 235.691 137.18C235.247 137.723 234.953 138.343 234.617 138.953C233.168 141.588 231.147 143.816 229.451 146.278C228.637 147.461 227.698 148.549 226.82 149.682C225.794 151.007 224.946 152.447 223.956 153.797C222.617 155.623 221.756 157.76 220.376 159.548C218.909 161.447 217.518 163.411 216.045 165.305C215.384 166.155 214.676 166.971 214.005 167.816C213.072 168.992 212.467 170.343 211.647 171.59C210.371 173.529 209.083 175.369 207.942 177.403C207.401 178.367 206.855 179.349 206.362 180.336C205.805 181.449 205.308 183.054 204.236 183.768" stroke="white" stroke-width="6" stroke-linecap="round"/>
<path d="M246.688 121.984C246.355 122.368 245.968 122.822 245.778 123.297C245.596 123.752 245.687 123.001 245.71 122.882C245.92 121.788 246.49 120.509 247.051 119.552C247.254 119.206 247.398 118.904 247.711 118.608C248.01 118.324 248.388 118.115 248.529 117.693C249.125 115.904 247.489 121.32 246.892 123.109" stroke="white" stroke-width="6" stroke-linecap="round"/>
<path d="M264.077 99.9911C264.927 100.841 265.917 101.649 266.714 102.548C267.112 102.997 267.641 103.333 267.913 103.878C268.324 104.7 269.057 105.38 269.698 106.021C270.85 107.173 272.252 108.036 273.295 109.311C274.321 110.565 275.64 111.532 276.682 112.778C277.921 114.259 279.988 114.844 281.183 116.358C281.87 117.229 282.783 117.881 283.456 118.756C284.649 120.31 285.798 121.834 287.093 123.314" stroke="white" stroke-width="6" stroke-linecap="round"/>
<path d="M309.597 250.053C309.94 250.334 310.518 250.359 310.933 250.463C311.673 250.648 312.444 250.685 313.177 250.895C314.298 251.215 315.408 251.545 316.536 251.844C317.293 252.044 318.005 252.301 318.781 252.452C319.717 252.634 320.611 253.042 321.543 253.202C323.529 253.543 325.462 254.209 327.441 254.605C329.343 254.986 331.225 255.472 333.147 255.782C335.482 256.158 337.808 256.582 340.126 257.004C343.208 257.564 346.305 258.497 349.468 258.726C351.992 258.908 354.429 259.669 356.97 259.669C358.615 259.669 360.13 259.677 361.709 259.135C362.022 259.027 365.197 258.315 364.414 257.532C364.064 257.182 363.627 257.67 363.403 257.907C362.779 258.565 362.103 259.007 361.243 259.305C360.403 259.597 359.504 259.715 358.697 260.101C358.273 260.304 357.751 260.669 357.265 260.692C356.95 260.707 358.567 257.712 358.754 257.441C359.078 256.971 359.284 256.474 359.447 255.93C359.505 255.739 359.22 256.257 359.084 256.401C358.727 256.778 358.297 257.088 357.862 257.367C357.07 257.876 356.164 258.232 355.447 258.851C355.264 259.008 354.894 259.586 354.662 259.652C354.564 259.68 355.075 258.82 355.14 258.748C355.646 258.187 356.445 257.863 357.163 257.669C357.776 257.502 357.396 257.691 357.083 257.953C356.232 258.665 355.519 259.451 354.765 260.26C354.067 261.008 353.273 261.689 352.679 262.527C352.36 262.979 352.31 263.419 352.105 263.897C351.905 264.365 352.887 262.021 352.747 262.51C352.588 263.069 351.998 263.56 351.662 264.022C351.185 264.678 350.628 265.248 350.184 265.931C348.925 267.87 347.919 269.878 346.991 271.989C346.658 272.744 346.122 273.485 345.32 273.762C344.675 273.986 343.664 273.722 343.052 273.524C342.688 273.406 342.001 273.228 341.819 272.865" stroke="white" stroke-width="6" stroke-linecap="round"/>
<path d="M299.454 264C299.299 264.602 299.214 265.222 299.05 265.819C298.931 266.253 299.034 265.783 299.252 265.684C299.774 265.449 300.554 265.8 301 265.438" stroke="white" stroke-width="6" stroke-linecap="round"/>
<path d="M299.368 264.477C301.255 265.083 303.339 265.373 305.295 265.659C306.559 265.843 307.9 266.361 309.137 266.682C312.891 267.655 316.694 268.464 320.542 268.978" stroke="white" stroke-width="6" stroke-linecap="round"/>
<path d="M360.743 260.59C361.374 261.168 362.866 261.111 363.698 261.181C364.732 261.267 365.75 261.359 366.784 261.414C367.925 261.474 369.003 261.612 370.154 261.612C370.864 261.612 371.538 261.809 372.245 261.817C373.158 261.827 374.053 261.863 374.962 261.914C376.623 262.006 378.259 262.124 379.929 262.124C381.387 262.124 382.862 261.983 384.282 261.664C385.918 261.295 387.079 260.699 388.237 259.487C388.621 259.085 388.868 258.496 389.18 258.032C389.56 257.468 389.947 256.916 390.306 256.339C391.491 254.429 391.78 252.459 392.045 250.258" stroke="white" stroke-width="6" stroke-linecap="round"/>
<path d="M382.122 230.823C383.068 230.983 383.816 231.032 384.583 231.596C385.199 232.048 385.959 232.372 386.526 232.868C386.995 233.279 387.506 233.648 387.93 234.119C389.276 235.615 389.351 238.21 389.385 240.086C389.396 240.701 389.64 241.304 389.686 241.921C389.734 242.565 389.653 243.215 389.697 243.859C389.737 244.434 390.08 244.958 390.101 245.53C390.12 246.054 390.446 245.31 390.51 245.144C390.851 244.256 390.987 245.332 391.124 245.763C391.272 246.23 391.377 247.269 391.789 247.599C392.01 247.775 391.942 248.719 391.942 249.031" stroke="white" stroke-width="6" stroke-linecap="round"/>
<path d="M481.345 219.877C482.543 220.132 483.748 220.497 484.903 220.9C485.047 220.95 486.916 221.544 486.108 221.514C484.943 221.471 483.764 220.44 482.8 219.877C482.029 219.427 481.204 219.024 480.368 218.707C479.87 218.518 479.36 218.369 478.981 217.974C478.334 217.297 477.527 216.985 476.697 216.598C476.575 216.542 475.343 215.961 475.532 215.74C475.881 215.332 477.25 215.967 477.64 216.093C478.331 216.315 478.95 216.725 479.663 216.911C480.034 217.008 480.341 216.977 480.652 217.172C481.3 217.581 482.23 217.568 482.88 217.985C483.278 218.241 483.817 218.315 484.164 218.599C484.879 219.184 485.121 219.995 485.312 220.9C485.481 221.703 485.335 222.695 485.335 223.514C485.335 224.117 485.484 224.849 485.079 225.344C484.648 225.871 484.456 225.992 483.806 226.276C483.549 226.389 483.256 226.605 483.039 226.782C482.832 226.951 482.611 226.951 482.368 227.061C481.909 227.267 481.385 227.414 481.039 227.799C480.468 228.433 480.22 229.426 480.22 230.266C480.22 231.664 480.187 233.206 479.936 234.585C479.648 236.171 479.483 237.815 479.305 239.415C479.264 239.787 479.328 240.168 479.294 240.54C479.253 240.989 479.095 241.416 479.095 241.87C479.095 242.151 478.899 242.948 479.049 242.711C479.512 241.984 479.668 240.825 479.913 240.006C480.492 238.07 480.629 235.714 480.629 233.681C480.629 233.05 480.732 232.433 480.732 231.8C480.732 231.496 480.648 231.059 480.828 230.789C480.938 230.623 480.775 231.182 480.754 231.38C480.697 231.937 480.636 232.476 480.527 233.028C480.255 234.41 480.105 235.863 479.993 237.267C479.857 238.959 479.811 240.707 479.811 242.404C479.811 243.678 479.58 244.889 479.51 246.155C479.422 247.728 479.402 249.286 479.402 250.872C479.402 252.521 479.3 254.216 479.3 255.884C479.3 258.157 479.62 260.428 479.817 262.687C479.894 263.571 480.016 264.455 480.016 265.346C480.016 265.982 480.026 266.596 480.197 267.216C480.38 267.878 480.839 266.36 480.913 266.136C481.045 265.74 480.917 265.221 481.09 264.84C481.327 264.317 481.182 263.42 481.294 262.834C481.489 261.821 481.262 260.78 481.243 259.771C481.194 257.116 481.141 254.456 481.141 251.793C481.141 250.522 481.345 249.279 481.345 248.002C481.345 246.585 481.448 245.18 481.448 243.768C481.448 242.244 481.379 240.73 481.345 239.211C481.31 237.581 481.404 235.808 481.192 234.193C480.953 232.378 480.657 230.601 480.436 228.782C480.422 228.669 480.503 228.145 480.305 228.231C479.295 228.673 478.516 229.797 477.686 230.493C476.414 231.559 475.691 232.809 475.208 234.38C474.715 235.982 473.929 237.472 473.52 239.108C473.39 239.629 473.16 240.166 473.065 240.688C473.05 240.773 473.037 239.753 473.009 239.506C472.911 238.643 472.837 237.774 472.753 236.909C472.736 236.737 472.658 235.262 472.571 235.983C472.399 237.404 472.548 238.925 472.548 240.359C472.548 241.173 472.548 241.988 472.548 242.802C472.548 246.267 472.753 249.768 472.753 253.23C472.753 253.961 472.753 254.693 472.753 255.424C472.753 256.145 472.623 257.02 472.776 257.725C473.075 259.112 472.993 260.529 473.168 261.925C473.237 262.478 473.367 262.941 473.367 263.511C473.367 263.996 473.367 264.481 473.367 264.965C473.367 265.263 473.296 265.518 473.264 265.807C473.244 265.985 473.931 265.704 474.191 265.704C474.958 265.704 475.561 265.98 476.282 266.204C476.719 266.34 477.598 266.221 477.867 266.625" stroke="white" stroke-width="6" stroke-linecap="round"/>
<path d="M232.16 230.88C233.751 231.344 235.416 230.431 235.88 228.84C236.344 227.249 235.431 225.584 233.84 225.12L232.16 230.88ZM209.84 218.12L206.96 217.28L205.28 223.04L208.16 223.88L209.84 218.12ZM233.84 225.12L209.84 218.12L208.16 223.88L232.16 230.88L233.84 225.12Z" fill="white"/>
<path d="M206 235C206 236.657 207.343 238 209 238C210.657 238 212 236.657 212 235L206 235ZM212 225L212 222L206 222L206 225L212 225ZM212 235L212 225L206 225L206 235L212 235Z" fill="white"/>
<path d="M209 223C209 224.657 210.343 226 212 226C213.657 226 215 224.657 215 223H209ZM215 221V218H209V221H215ZM215 223V221H209V223H215Z" fill="white"/>
<path d="M241.479 242.954C243.11 243.242 244.666 242.153 244.954 240.521C245.242 238.89 244.153 237.334 242.521 237.046L241.479 242.954ZM208.521 231.046L205.567 230.524L204.524 236.433L207.479 236.954L208.521 231.046ZM242.521 237.046L208.521 231.046L207.479 236.954L241.479 242.954L242.521 237.046Z" fill="white"/>
<path d="M246 221C246 219.343 244.657 218 243 218C241.343 218 240 219.343 240 221H246ZM240 239V242H246V239H240ZM240 221V239H246V221H240Z" fill="white"/>
<path d="M243 220L249 222" stroke="white" stroke-width="6" stroke-linecap="round"/>
<path d="M259 118V170" stroke="white" stroke-width="4" stroke-linecap="round"/>
<path d="M259 178V202" stroke="white" stroke-width="4" stroke-linecap="round"/>
<path d="M270 195V202" stroke="white" stroke-width="4" stroke-linecap="round"/>
<path d="M270 135V188" stroke="white" stroke-width="4" stroke-linecap="round"/>
<path d="M253.5 217.5L266.499 221.5" stroke="white" stroke-width="6.5" stroke-linecap="round"/>
<path d="M259 238V248" stroke="white" stroke-width="4" stroke-linecap="round"/>
<path d="M259 255V341" stroke="white" stroke-width="4" stroke-linecap="round"/>
<path d="M270 278V359" stroke="white" stroke-width="4" stroke-linecap="round"/>
<path d="M270 366L270 378" stroke="white" stroke-width="4" stroke-linecap="round"/>
<path d="M270 392L270 401" stroke="white" stroke-width="4" stroke-linecap="round"/>
<path d="M259 380L259 465" stroke="white" stroke-width="4" stroke-linecap="round"/>
<path d="M270 481L270 573" stroke="white" stroke-width="4" stroke-linecap="round"/>
<path d="M259 487L259 503" stroke="white" stroke-width="4" stroke-linecap="round"/>
<path d="M259 548L259 560" stroke="white" stroke-width="4" stroke-linecap="round"/>
<path d="M265 578L265 623" stroke="white" stroke-width="4" stroke-linecap="round"/>
<path d="M450 295L450 379" stroke="white" stroke-width="4" stroke-linecap="round"/>
<path d="M438.497 277.999V444.002" stroke="white" stroke-width="6" stroke-linecap="round"/>
<path d="M464 350L464 379" stroke="white" stroke-width="4" stroke-linecap="round"/>
<path d="M463 299L463 325" stroke="white" stroke-width="4" stroke-linecap="round"/>
<path d="M482 225L482 499M472 233L472 452" stroke="white" stroke-width="6" stroke-linecap="round"/>
<path d="M463 285L463 293" stroke="white" stroke-width="4" stroke-linecap="round"/>
<path d="M473 266L481 271" stroke="white" stroke-width="4" stroke-linecap="round"/>
<path d="M438 224L470 236" stroke="white" stroke-width="4" stroke-linecap="round"/>
<path d="M437 205V245" stroke="white" stroke-width="4" stroke-linecap="round"/>
<path d="M439 205V245" stroke="white" stroke-width="4" stroke-linecap="round"/>
<path d="M450 208V247" stroke="white" stroke-width="4" stroke-linecap="round"/>
<path d="M486 218L566 239" stroke="white" stroke-width="4" stroke-linecap="round"/>
<path d="M576 229L566 239" stroke="white" stroke-width="4" stroke-linecap="round"/>
<path d="M575 228L565 238" stroke="white" stroke-width="4" stroke-linecap="round"/>
<path d="M418 201H403" stroke="white" stroke-width="4" stroke-linecap="round"/>
<path d="M416 199H401" stroke="white" stroke-width="4" stroke-linecap="round"/>
<path d="M405 200L383 229" stroke="white" stroke-width="4" stroke-linecap="round"/>
<path d="M453 247L384 230" stroke="white" stroke-width="4" stroke-linecap="round"/>
<path d="M455 250L386 233" stroke="white" stroke-width="4" stroke-linecap="round"/>
<path d="M448 279L371 263" stroke="white" stroke-width="4" stroke-linecap="round"/>
<path d="M384 265L369 265" stroke="white" stroke-width="4" stroke-linecap="round"/>
<path d="M367 263L352 263" stroke="white" stroke-width="4" stroke-linecap="round"/>
<path d="M357 263L347 276" stroke="white" stroke-width="4" stroke-linecap="round"/>
<path d="M299.5 267.5L346.5 276.5" stroke="white" stroke-width="4" stroke-linecap="round"/>
<path d="M369 344L369.5 263" stroke="white" stroke-width="6" stroke-linecap="round"/>
<path d="M451 277L373 261" stroke="white" stroke-width="4" stroke-linecap="round"/>
<path d="M463 211L463 244" stroke="white" stroke-width="3" stroke-linecap="square"/>
<path d="M419 189L411 200" stroke="white" stroke-width="4" stroke-linecap="round"/>
<path d="M421 190L414 200" stroke="white" stroke-width="4" stroke-linecap="round"/>
<path d="M438 206L414 200" stroke="white" stroke-width="4" stroke-linecap="round"/>
<path d="M565 237L415 198" stroke="white" stroke-width="4" stroke-linecap="round"/>
<path d="M450 388L450 409" stroke="white" stroke-width="4" stroke-linecap="round"/>
<path d="M459 408L459 438" stroke="white" stroke-width="4" stroke-linecap="round"/>
<path d="M377 439L377 486" stroke="white" stroke-width="6" stroke-linecap="round"/>
<path d="M356 388L357 435" stroke="white" stroke-width="4" stroke-linecap="round"/>
<path d="M378 388L377 435" stroke="white" stroke-width="4" stroke-linecap="round"/>
<path d="M334 393L338 437" stroke="white" stroke-width="4" stroke-linecap="round"/>
<path d="M325 401C329 383.5 408 382 413 401" stroke="white" stroke-width="7" stroke-linecap="round"/>
<path d="M326 401C329.909 383.108 407.114 381.574 412 401" stroke="white" stroke-width="9" stroke-linecap="round"/>
<path d="M328 417.118C361.794 409.215 378.691 408.086 410 419" stroke="white" stroke-width="9" stroke-linecap="round"/>
<path d="M400 391L396 437" stroke="white" stroke-width="4" stroke-linecap="round"/>
<path d="M413 402L410 437" stroke="white" stroke-width="7" stroke-linecap="round"/>
<path d="M325 402L328 438" stroke="white" stroke-width="7" stroke-linecap="round"/>
<path d="M338 390L338 416" stroke="white" stroke-width="6" stroke-linecap="round"/>
<path d="M433 446L433 489" stroke="white" stroke-width="6" stroke-linecap="round"/>
<path d="M405 490L405 540" stroke="white" stroke-width="6" stroke-linecap="round"/>
<path d="M461 497L461 547" stroke="white" stroke-width="6" stroke-linecap="round"/>
<path d="M483 556L483 606" stroke="white" stroke-width="6" stroke-linecap="round"/>
<path d="M461 605L461 646" stroke="white" stroke-width="6" stroke-linecap="round"/>
<path d="M405 598V642" stroke="white" stroke-width="6" stroke-linecap="round"/>
<path d="M349 598V642" stroke="white" stroke-width="6" stroke-linecap="round"/>
<path d="M433 546L433 596" stroke="white" stroke-width="6" stroke-linecap="round"/>
<path d="M377 542L377 592" stroke="white" stroke-width="6" stroke-linecap="round"/>
<path d="M321 545L321 595" stroke="white" stroke-width="6" stroke-linecap="round"/>
<path d="M348 490L348 540" stroke="white" stroke-width="6" stroke-linecap="round"/>
<path d="M248 500L227 505" stroke="white" stroke-width="6" stroke-linecap="round"/>
<path d="M249 553L228 558" stroke="white" stroke-width="6" stroke-linecap="round"/>
<path d="M321 440L321 487" stroke="white" stroke-width="6" stroke-linecap="round"/>
<path d="M505.25 470.998V657" stroke="white" stroke-width="7.5" stroke-linecap="round"/>
<path d="M227 473V655" stroke="white" stroke-width="7.5" stroke-linecap="round"/>
<path d="M227 473.5C228.5 463.5 248 457 248 457" stroke="white" stroke-width="8" stroke-linecap="round"/>
<path d="M270 471L270 476" stroke="white" stroke-width="4" stroke-linecap="round"/>
<path d="M270 408L270 450" stroke="white" stroke-width="4" stroke-linecap="round"/>
<path d="M300 245L351 256" stroke="white" stroke-width="4" stroke-linecap="round"/>
<path d="M284 216L298 226" stroke="white" stroke-width="6" stroke-linecap="round"/>
<path d="M300 212L361 226" stroke="white" stroke-width="6" stroke-linecap="round"/>
<path d="M299 210L299 644" stroke="white" stroke-width="6" stroke-linecap="round"/>
<path d="M266 90L404 199" stroke="white" stroke-width="8" stroke-linecap="round"/>
<path d="M263 98L286 122" stroke="white" stroke-width="8" stroke-linecap="round"/>
<path d="M283 644L283 122" stroke="white" stroke-width="6" stroke-linecap="round"/>
<path d="M355.256 225.749C356.134 226.122 356.962 226.651 357.743 227.192C357.999 227.369 358.177 227.611 358.415 227.806C358.66 228.006 358.967 228.304 359.152 228.543C359.364 228.816 359.631 229.094 359.77 229.399C360.039 229.992 360.524 230.479 360.783 231.061C361.076 231.721 361.349 232.473 361.462 233.21C361.693 234.713 361.888 236.213 361.888 237.754C361.888 239.315 361.704 240.818 361.704 242.387C361.704 243.107 361.95 243.816 361.95 244.54C361.95 245.033 362.073 245.518 362.073 246.014C362.073 246.648 362.073 247.283 362.073 247.918C362.073 248.323 362.159 248.868 362.059 249.269C361.95 249.703 361.68 250.121 361.534 250.545C361.457 250.765 361.297 251.122 361.151 251.295C361.037 251.431 360.971 251.609 360.848 251.752C360.737 251.882 360.551 252.043 360.49 252.203C360.202 252.95 359.38 253.463 358.954 254.12C358.553 254.741 357.853 255.073 357.235 255.471C356.841 255.724 356.477 255.956 356.055 256.16C355.521 256.417 354.941 256.566 354.396 256.808C353.987 256.99 353.511 257.069 353.08 257.177C352.816 257.243 352.586 257.344 352.312 257.378C352.184 257.394 351.983 257.428 351.879 257.497" stroke="white" stroke-width="5" stroke-linecap="round"/>
<path d="M353.045 225.257C353.481 225.257 353.773 225.226 354.103 225.489C354.291 225.64 354.639 225.65 354.813 225.824C354.997 226.008 355.207 226.117 355.365 226.315C355.49 226.471 355.736 226.595 355.87 226.762C356.18 227.149 356.616 227.372 356.914 227.745C357.056 227.922 357.278 228.01 357.405 228.232C357.46 228.328 357.798 228.658 357.897 228.71C358.139 228.838 358.346 229.099 358.524 229.297C358.69 229.481 358.919 229.654 359.05 229.863C359.104 229.95 359.282 230.058 359.306 230.143C359.33 230.227 359.388 230.399 359.446 230.464C359.611 230.647 359.715 230.888 359.893 231.03C359.992 231.109 360.317 231.589 360.35 231.736C360.377 231.857 360.6 232.309 360.691 232.381C360.769 232.443 360.807 232.668 360.892 232.763C360.975 232.856 361.06 232.968 361.093 233.084C361.168 233.344 361.212 233.67 361.336 233.916" stroke="white" stroke-width="5" stroke-linecap="round"/>
<path d="M346.505 254.657C359.808 257.996 369.415 236.144 350.042 225.346M346 253.663C355.601 254.657 356.611 252.173 358.798 247.702C360.149 243.23 360.427 239.256 359.43 235.778C357.875 230.35 347.516 223.359 349.032 225.346" stroke="white" stroke-width="2"/>
<path d="M390 235C399.5 244 396.5 260 386 264" stroke="white" stroke-width="3"/>
<path d="M451.991 249C468.595 258.31 463.352 274.862 445 279" stroke="white" stroke-width="3"/>
<path d="M453 246.5C470 252.5 468.5 279 447.5 279.5" stroke="white" stroke-width="3"/>
<path d="M451.5 246C468.5 252 467 278.5 446 279" stroke="white" stroke-width="3"/>
<line x1="361.202" y1="348.167" x2="338.167" y2="363.798" stroke="white" stroke-width="6" stroke-linecap="round"/>
<line x1="378.233" y1="347.718" x2="397.718" y2="364.767" stroke="white" stroke-width="6" stroke-linecap="round"/>
<line x1="377" y1="347" x2="363" y2="347" stroke="white" stroke-width="6" stroke-linecap="round"/>
<line x1="399" y1="391" x2="399" y2="366" stroke="white" stroke-width="6" stroke-linecap="round"/>
<line x1="338" y1="388" x2="338" y2="365" stroke="white" stroke-width="6" stroke-linecap="round"/>
<path d="M300.5 491C383.725 482.679 426.362 484.856 504 505M300.5 598C383.725 589.679 426.362 592.356 504 612.5M300.5 545C383.725 536.679 426.362 539.356 504 559.5" stroke="white" stroke-width="8" stroke-linecap="round"/>
<path d="M227.022 656.021C298.5 637.5 449 640 506.022 657.972" stroke="white" stroke-width="6" stroke-linecap="round"/>
</g>
<path d="M711.5 361.5C711.5 551.931 556.026 706.5 364 706.5C171.974 706.5 16.5 551.931 16.5 361.5C16.5 171.069 171.974 16.5 364 16.5C556.026 16.5 711.5 171.069 711.5 361.5Z" stroke="white" stroke-width="33"/>
<defs>
<filter id="filter0_d_938_3" x="150.098" y="63.1633" width="434.902" height="604.81" filterUnits="userSpaceOnUse" color-interpolation-filters="sRGB">
<feFlood flood-opacity="0" result="BackgroundImageFix"/>
<feColorMatrix in="SourceAlpha" type="matrix" values="0 0 0 0 0 0 0 0 0 0 0 0 0 0 0 0 0 0 127 0" result="hardAlpha"/>
<feOffset dx="2" dy="2"/>
<feGaussianBlur stdDeviation="2.5"/>
<feComposite in2="hardAlpha" operator="out"/>
<feColorMatrix type="matrix" values="0 0 0 0 0 0 0 0 0 0 0 0 0 0 0 0 0 0 0.4 0"/>
<feBlend mode="normal" in2="BackgroundImageFix" result="effect1_dropShadow_938_3"/>
<feBlend mode="normal" in="SourceGraphic" in2="effect1_dropShadow_938_3" result="shape"/>
</filter>
</defs>
</svg>
