<svg width="435" height="605" viewBox="0 0 435 605" fill="none" xmlns="http://www.w3.org/2000/svg">
<g filter="url(#filter0_d_937_200)">
<path d="M150.5 380.5C241 363.5 346 388.5 354.5 407" stroke="#434343" stroke-width="8" stroke-linecap="round"/>
<line x1="116.208" y1="6.45897" x2="269.459" y2="124.792" stroke="#434343" stroke-width="6" stroke-linecap="round"/>
<line x1="302.199" y1="74.3947" x2="424.395" y2="165.801" stroke="#434343" stroke-width="6" stroke-linecap="round"/>
<line x1="115.849" y1="6.21554" x2="301.216" y2="74.1509" stroke="#434343" stroke-width="6" stroke-linecap="round"/>
<line x1="115.815" y1="6.16364" x2="6.16364" y2="169.185" stroke="#434343" stroke-width="6" stroke-linecap="round"/>
<line x1="115.802" y1="25.1662" x2="12.1662" y2="178.198" stroke="#434343" stroke-width="6" stroke-linecap="round"/>
<line x1="20.5333" y1="174.981" x2="12.981" y2="178.467" stroke="#434343" stroke-width="6" stroke-linecap="round"/>
<line x1="98.4699" y1="192.353" x2="19.3534" y2="176.53" stroke="#434343" stroke-width="6" stroke-linecap="round"/>
<path d="M96 147C96 148.657 97.3431 150 99 150C100.657 150 102 148.657 102 147L96 147ZM102 52L102 49L96 49L96 52L102 52ZM102 147L102 52L96 52L96 147L102 147Z" fill="#434343"/>
<path d="M80 165C80 166.657 81.3431 168 83 168C84.6569 168 86 166.657 86 165H80ZM86 145V142H80V145H86ZM86 165V145H80V165H86Z" fill="#434343"/>
<path d="M98.227 150.899C99.8279 151.326 101.472 150.374 101.899 148.773C102.326 147.172 101.374 145.528 99.773 145.101L98.227 150.899ZM84.773 141.101L81.8743 140.328L80.3283 146.126L83.227 146.899L84.773 141.101ZM99.773 145.101L84.773 141.101L83.227 146.899L98.227 150.899L99.773 145.101Z" fill="#434343"/>
<line x1="99" y1="586" x2="99" y2="160" stroke="#434343" stroke-width="6" stroke-linecap="round"/>
<line x1="11.8542" y1="178.099" x2="6.09874" y2="169.146" stroke="#434343" stroke-width="6" stroke-linecap="round"/>
<path d="M270 125L425 166" stroke="#434343" stroke-width="6" stroke-linecap="round"/>
<path d="M158.376 92.9265C156.821 93.3297 155.267 93.7312 153.739 94.228C153.607 94.2707 151.754 94.7095 152.991 94.8712C156.205 95.2918 159.477 95.6635 162.714 95.8287C163.569 95.8723 167.97 95.8885 164.629 95.8885C162.789 95.8885 160.949 95.8885 159.109 95.8885C157.596 95.8885 155.417 95.5495 153.963 96.1727C153.214 96.4938 154.414 96.6811 154.516 96.6963C156.236 96.9515 158.006 96.9921 159.737 97.1002C162.152 97.2511 169.288 97.6627 166.918 98.1474C163.699 98.8059 160.337 98.162 157.105 99.0001C152.967 100.073 158.925 100.661 160.022 100.735C162.003 100.871 163.99 100.952 165.976 100.99C166.239 100.995 168.078 100.811 168.459 101.065C168.935 101.382 167.326 101.245 166.754 101.259C164.949 101.302 163.142 101.253 161.338 101.334C160.448 101.374 155.411 101.884 158.436 103.488C160.381 104.519 162.748 104.887 164.869 105.313C168.878 106.119 172.91 106.853 176.941 107.542C178.281 107.771 183.276 108.643 178.766 108.485C174.966 108.351 171.003 107.39 167.202 107.752C165.036 107.958 171.549 108.006 173.725 108.006C174.333 108.006 176.13 107.88 175.55 108.066C173.871 108.603 171.595 108.279 169.865 108.395C168.847 108.463 161.461 108.573 161.218 110.1C161.037 111.243 170.317 111.425 171.032 111.447C171.372 111.457 176.625 111.191 176.059 110.908C174.198 109.978 171.932 110.383 169.955 109.981C165.124 108.996 161.219 104.185 159.124 100.032C158.229 98.2587 156.068 93.6469 158.256 91.984C161.415 89.5833 164.946 94.3849 166.215 96.6365C167.62 99.1288 168.928 102.626 168.489 105.553C168.236 107.24 166.514 107.964 165.048 107.168C162.456 105.76 160.907 102.358 159.842 99.778C159.497 98.9419 158.64 97.2762 159.124 96.3074C159.829 94.898 162.909 95.7347 163.926 96.0082C167.329 96.9233 170.908 99.1614 173.007 102.037C175.697 105.723 170.648 106.098 168.07 105.762C165.721 105.456 160.245 104.227 159.214 101.603C158.305 99.2894 163.03 98.4064 164.315 98.5962C167.024 98.9964 169.541 101.377 170.493 103.892C171.484 106.508 168.472 106.357 166.783 105.852C165.745 105.541 159.781 103.026 160.77 101.214C161.186 100.451 162.937 100.363 163.612 100.317C165.848 100.164 168.041 100.704 169.925 101.932C170.646 102.402 174.569 105.787 173.096 107.019C171.35 108.479 167.066 105.94 165.617 105.104C165.44 105.002 161.536 102.778 162.834 102.291C165.568 101.266 168.792 103.691 170.508 105.553C170.725 105.787 172.056 107.151 171.75 107.707C171.307 108.512 169.94 107.259 169.147 106.794C167.472 105.813 165.841 104.708 164.33 103.488C163.674 102.958 162.149 101.911 161.966 100.945C161.656 99.3065 167.22 99.4164 167.965 99.3891C168.442 99.3716 175.356 98.7915 174.892 98.1923C174.318 97.4522 172.717 96.9382 171.975 96.6365C169.543 95.648 167.035 94.8342 164.51 94.1233C160.901 93.1074 157.154 92.6071 153.559 91.5801C152.746 91.3478 153.08 90.8505 153.649 90.503C155.211 89.5484 157.497 90.1569 158.795 91.3108C161.79 93.973 149.894 91.8943 149.849 91.9242C149.159 92.3839 151.426 92.4535 152.243 92.5974C154.521 92.9988 156.831 93.1102 159.139 93.1658C161.194 93.2153 163.262 93.2302 165.317 93.1957C166.079 93.183 167.773 93.1794 166.335 92.2084C161.82 89.1608 156.047 87.5132 151.106 85.297C150.367 84.9658 142.246 81.99 142.609 80.5398C142.854 79.559 147.42 77.4631 148.129 78.9241C148.705 80.1122 148.618 81.9544 148.682 83.1727C148.873 86.7778 149.006 90.3845 149.221 93.9886C149.518 98.9794 149.553 103.994 149.909 108.978C149.928 109.244 150.537 113.782 150.537 111.432C150.537 106.413 149.693 101.391 149.55 96.3672C149.392 90.8364 149.273 85.3171 148.951 79.7918C148.848 78.0097 148.738 76.2279 148.562 74.4512C148.368 72.4773 148.413 74.1794 148.413 75.0496C148.413 88.7484 149.902 102.553 151.794 116.114C152.193 118.975 151.578 113.475 151.525 113.092C150.799 107.932 149.621 102.837 148.682 97.7136C147.8 92.9015 147.254 88.1727 147.007 83.2924C146.967 82.5147 146.979 81.6104 146.797 80.839C146.54 79.7444 146.463 83.0668 146.408 84.19C146.108 90.317 146.259 96.4733 146.259 102.605C146.259 105.004 146.259 107.403 146.259 109.801C146.259 110.517 146.49 112.054 146.244 112.793C145.947 113.685 146.089 110.919 146.049 109.981C145.949 107.605 145.85 105.233 145.705 102.86C145.242 95.2633 144.885 87.6727 143.895 80.1209C143.688 78.538 143.464 76.9522 143.192 75.3787C143.07 74.6756 143.027 74.6457 142.968 75.3637C142.627 79.4852 142.81 83.6317 143.087 87.7504C143.438 92.9661 143.851 98.1731 144.045 103.398C144.079 104.325 144.104 105.253 144.104 106.181C144.104 107.472 144.108 103.598 144.09 102.306C144.015 97.1878 143.5 92.1072 143.177 87.0024C142.951 83.4352 143.007 79.836 142.743 76.2763C142.57 73.9453 142.414 80.9409 142.354 83.2774C142.155 91.1095 142.169 98.9458 142.01 106.779C141.935 110.459 141.95 114.139 141.95 117.819C141.95 119.795 142.112 113.871 142.16 111.895C142.334 104.77 142.196 97.6247 141.95 90.503C141.758 84.9383 141.142 79.4084 141.142 73.8378C141.142 73.0898 141.477 70.9248 141.142 71.5939C140.924 72.0305 141.011 73.8829 140.993 74.1819C140.595 80.6014 140.239 87.0249 139.946 93.4501C139.523 102.703 139.258 130.493 139.258 121.23C139.258 106.687 139.527 92.1476 139.527 77.6077C139.527 67.0262 139.527 98.7707 139.527 109.352C139.527 111.487 139.527 113.621 139.527 115.755C139.527 115.935 139.527 116.114 139.527 116.294C139.527 116.852 139.527 115.177 139.527 114.618C139.527 109.646 139.408 104.698 139.123 99.7332C138.657 91.6038 138.45 83.5189 138.45 75.3787C138.45 74.8522 138.795 78.4622 138.898 78.984C139.45 81.7664 140.04 84.6283 141.083 87.2717C141.736 88.9267 142.172 90.5702 143.566 91.7895C145.87 93.8054 149.274 94.7589 152.213 95.2901C156.289 96.027 160.455 96.0964 164.569 96.4869C165.112 96.5383 171.672 96.6959 169.117 98.3269C166.39 100.068 162.558 100.421 159.498 101.289C157.782 101.776 152.639 102.83 153.021 105.553C153.385 108.155 158.734 108.004 160.47 108.111C164.234 108.341 175.55 108.275 171.78 108.275C167.556 108.275 163.314 108.176 159.094 108.395C158.429 108.429 147.851 109.198 149.101 111.506C149.609 112.444 151.583 112.688 152.392 112.808C155.428 113.258 158.548 113.265 161.607 113.332C169.203 113.496 176.811 113.471 184.391 114.065C185.252 114.132 186.854 113.611 186.949 114.469C187.038 115.268 185.372 114.811 184.571 114.872C178.422 115.345 172.154 115.05 166.11 116.458C164.925 116.734 157.214 118.621 157.628 121.021C157.781 121.909 160.48 121.921 160.8 121.948C165.791 122.376 170.845 122.271 175.849 122.337C184.407 122.451 193.001 122.365 201.55 122.816C202.184 122.85 202.818 122.893 203.45 122.951C203.882 122.99 204.721 122.801 204.721 123.235C204.721 123.335 204.577 123.383 204.482 123.414C203.833 123.628 202.212 123.841 201.729 123.893C193.639 124.76 185.465 124.204 177.375 125.15C174.219 125.519 171.007 126.062 168.04 127.244C167.779 127.348 164.279 128.736 166.021 129.518C167.49 130.178 169.516 130.181 171.062 130.296C174.895 130.581 178.743 130.705 182.581 130.909C190.111 131.31 197.692 131.521 205.2 132.241C205.829 132.301 206.459 132.363 207.085 132.45C207.557 132.516 208.514 132.365 208.461 132.839C208.445 132.985 208.212 133.003 208.072 133.049C207.274 133.308 206.178 133.386 205.41 133.452C196.819 134.192 187.853 133.355 179.41 135.322C178.803 135.464 171.716 137.683 174.592 139.511C176.292 140.591 178.895 140.911 180.786 141.232C185.979 142.113 191.236 142.361 196.494 142.443C200.965 142.513 206.702 143.249 211.049 141.8C212.318 141.377 207.983 140.874 207.654 140.858" stroke="#434343" stroke-width="3" stroke-linecap="round"/>
<path d="M157.568 87.2716C156.799 84.6755 155.843 82.0697 154.337 79.7918C153.545 78.594 156.489 80.4404 156.731 81.4074C157.594 84.8625 149.778 85.9983 147.785 86.3441C147.683 86.3618 143.873 86.8128 144.015 87.122C144.454 88.0833 147.688 88.1643 148.443 88.2291C150.628 88.4166 152.835 88.4494 155.025 88.5582C155.304 88.5721 157.256 88.887 157.509 88.4983C157.886 87.9175 155.451 85.4195 155.145 84.8482C153.789 82.3149 152.43 79.5182 151.644 76.7699" stroke="#434343" stroke-width="10" stroke-linecap="round"/>
<path d="M143.835 68.6917C143.056 71.6157 144.035 75.2047 144.658 78.0714C145.268 80.8783 145.949 83.704 146.737 86.4638C147.254 88.27 147.738 90.3732 147.859 92.2533C147.94 93.4967 147.748 94.773 147.934 96.0082C148.389 99.0208 147.901 102.078 148.204 105.104C148.55 108.567 148.413 112.065 148.413 115.546C148.413 117.593 147.874 123.712 147.874 121.664C147.874 121.286 147.702 120.459 148.039 120.183C149.072 119.338 151.878 119.854 153.11 119.854C156.456 119.854 159.802 119.854 163.148 119.854C164.985 119.854 162.346 119.854 161.907 119.854C158.835 119.854 155.763 119.854 152.691 119.854C150.531 119.854 153.942 119.854 154.487 119.854C157.459 119.854 160.431 119.854 163.403 119.854C164.649 119.854 169.37 119.854 165.437 119.854C161.528 119.854 157.618 119.854 153.709 119.854C152.542 119.854 149.041 119.854 150.208 119.854C151.295 119.854 152.382 119.854 153.469 119.854C160.121 119.854 166.774 119.854 173.426 119.854C173.952 119.854 178.071 119.854 176.717 119.854C174.543 119.854 172.369 119.854 170.194 119.854C168.439 119.854 166.684 119.854 164.929 119.854C163.174 119.854 164.403 119.854 165.392 119.854C171.81 119.854 178.228 119.854 184.646 119.854C188.096 119.854 191.547 119.854 194.998 119.854" stroke="#434343" stroke-width="10" stroke-linecap="round"/>
<path d="M145.72 110.968C143.369 112.1 142.83 115.566 142.773 117.849C142.695 121.009 142.364 124.529 143.282 127.588C143.852 129.487 143.566 131.837 143.566 133.856C143.566 135.256 143.373 136.836 143.626 138.225C143.802 139.191 143.482 140.654 144.763 140.05C147.052 138.968 150.151 139.494 152.602 139.511C157.148 139.543 161.623 140.551 166.185 140.588C167.724 140.601 172.331 140.857 170.793 140.857C168.884 140.857 167.015 140.408 165.123 140.214C162.8 139.977 160.453 140.05 158.122 140.05C156.21 140.05 154.342 140.319 152.437 140.319C151.632 140.319 151.274 140.42 150.702 140.992C150.249 141.445 149.49 142.826 149.49 141.216C149.49 138.982 149.626 135.961 150.447 133.871C151.212 131.926 152.845 130.04 155.01 129.847C158.256 129.559 160.006 129.991 160.231 133.587C160.284 134.434 160.574 136.31 159.812 136.968C158.751 137.885 157.13 136.908 156.282 136.22C154.165 134.504 151.363 129.364 154.068 127.035C155.551 125.757 158.474 126.353 160.111 126.885C162.716 127.731 165.797 129.498 167.502 131.702C171.263 136.564 159.182 134.676 157.389 134.275C155.049 133.752 145.231 131.889 150.567 127.962C155.08 124.641 163.732 127.593 167.143 131.223C167.984 132.119 169.794 134.618 168.369 135.831C167.035 136.967 164.498 135.81 163.343 135.023C159.309 132.277 157.035 127.392 157.688 122.547C158.439 116.97 163.92 118.083 167.307 120.781C167.801 121.175 169.885 123.071 169.057 123.968C167.911 125.21 163.839 121.644 163.178 121.096C157.767 116.604 154.074 111.341 153.813 104.176C153.776 103.135 153.595 101.56 154.487 100.795C154.704 100.609 155.77 100.164 155.923 100.661C156.28 101.823 155.967 103.635 155.938 104.819C155.885 106.934 155.444 109.039 155.444 111.147C155.444 112.459 155.897 112.145 155.938 110.953C156.033 108.142 155.857 105.305 155.399 102.531C155.198 101.31 154.906 100.104 154.726 98.8804C154.664 98.4614 154.543 97.5738 154.965 98.6111C156.841 103.215 158.966 107.492 161.622 111.716C164.101 115.657 166.774 119.783 171.331 121.485C171.949 121.715 174.561 122.73 174.488 121.335C174.246 116.746 170.31 112.878 167.651 109.472C167.532 109.319 164.781 105.722 164.629 105.911C164.081 106.596 168.351 112.664 168.668 113.152C171.712 117.829 175.503 122.137 179.649 125.868C182.481 128.416 185.765 130.414 188.565 132.989C188.681 133.095 191.125 135.725 189.792 134.903C187.237 133.328 184.878 131.514 182.222 130.086C179.833 128.803 176.924 127.132 174.084 127.453C171.914 127.699 172.967 131.31 173.306 132.57C174.092 135.496 175.623 138.228 178.243 139.87C179.334 140.554 181.54 141.688 182.91 141.336C183.367 141.219 180.554 139.526 180.307 139.421C179.97 139.278 176.699 138.405 178.392 138.763C181.706 139.464 185.171 139.242 188.535 139.242C190.091 139.242 191.647 139.242 193.202 139.242C193.332 139.242 193.462 139.242 193.591 139.242C193.96 139.242 192.853 139.244 192.484 139.242C189.212 139.218 185.943 139.028 182.671 138.987C180.473 138.96 176.07 138.277 174.069 139.646C173.644 139.937 174.934 140.24 175.43 140.379C177.272 140.893 179.156 141.272 181.025 141.665C184.618 142.422 188.208 143.202 191.811 143.909C198.167 145.158 179.085 141.228 172.618 140.872C172.293 140.855 167.536 140.542 168.923 140.603C172.328 140.754 175.547 141.881 178.826 142.712C182.429 143.626 186.059 143.973 189.702 144.627C191.648 144.977 191.503 145.231 189.657 145.136C186.096 144.953 182.579 144.579 179.006 144.642C176.458 144.687 173.946 145.045 171.406 145.151C169.676 145.223 171.069 145.406 171.915 145.585C174.043 146.035 176.182 146.39 178.318 146.796C180.594 147.23 182.835 147.796 185.079 148.367C186.953 148.844 186.211 148.678 184.765 148.352C180.15 147.312 175.697 146.432 170.942 146.512C170.418 146.521 173.572 147.206 174.054 147.32C176.887 147.991 179.697 148.686 182.551 149.265C186.18 150 196.987 152.516 193.442 151.449C186.744 149.432 180.019 147.585 173.306 145.645C169.306 144.488 165.645 142.375 161.548 141.725C160.031 141.484 158.562 141.396 157.03 141.396C155.484 141.396 156.172 141.991 157.149 142.802C159 144.339 160.84 144.335 162.954 145.181C165.287 146.114 167.745 146.434 170.09 147.215C173.118 148.225 176.203 149.111 179.365 149.744C182.151 150.301 184.902 150.876 187.608 151.778C191.03 152.919 194.748 154.733 198.364 155.114C199.172 155.199 199.914 155.611 200.712 155.668C201.536 155.726 202.767 155.754 203.555 155.997C204.689 156.346 208.683 158.042 208.94 156.146C209.516 151.9 204.529 149.228 201.73 147.051C198.404 144.464 196.12 140.082 193.517 136.803C191.643 134.443 190.72 131.793 189.403 129.129C188.388 127.077 186.956 125.282 185.842 123.295C185.14 122.043 184.776 120.687 183.897 119.525C182.94 118.258 181.743 117.188 180.846 115.875C180.02 114.665 179.347 113.361 178.452 112.195C177.592 111.073 176.477 110.198 175.61 109.083C173.964 106.967 172.26 104.86 171.032 102.471C169.794 100.061 167.962 98.1503 166.514 95.8884C162.99 90.3814 159.662 84.8175 155.624 79.6721C153.161 76.5348 150.901 72.7802 149.355 69.0955C148.676 67.4751 147.575 66.102 146.917 64.4879C146.551 63.5893 145.842 62.0569 145.047 61.4212C144.066 60.6362 142.159 57.4304 142.504 58.6386C143.456 61.9705 148.223 64.0213 150.298 66.672C153.204 70.3849 156.085 74.0904 158.855 77.9068C161.468 81.5067 164.703 84.5953 167.532 88.0196C169.883 90.8661 172.748 93.0907 175.131 95.8884C178.304 99.6129 181.564 103.278 184.556 107.138C187.323 110.709 190.841 113.676 193.517 117.296C194.821 119.06 196.249 120.779 197.705 122.427C200.072 125.106 203.178 126.951 205.484 129.683C207.643 132.239 209.816 134.758 212.097 137.207C213.517 138.732 215.106 140.054 216.27 141.8C216.963 142.838 217.654 143.911 218.26 145.001C218.418 145.286 217.224 145.163 217.063 145.136C215.663 144.903 214.391 143.681 213.293 142.877C210.674 140.959 207.722 139.576 205.17 137.566C202.849 135.739 200.932 133.367 198.977 131.164C196.126 127.951 193.874 124.287 191.497 120.722C190.962 119.919 191.114 120.762 191.228 121.26C191.607 122.923 192.218 124.487 192.963 126.017C194.993 130.188 196.832 134.109 200.174 137.417C203.932 141.137 208.305 144.208 212.171 147.799C214.284 149.761 215.248 151.054 216.39 153.753C217.496 156.368 216.809 160.08 216.809 162.953C216.809 166.03 216.809 175.26 216.809 172.183C216.809 169.824 216.537 167.525 215.463 165.376C214.649 163.75 213.518 162.369 212.635 160.799C210.783 157.506 206.456 154.662 206.307 150.492C206.258 149.126 206.974 148.538 207.923 147.589C209.202 146.31 210.419 144.863 211.902 143.819C212.741 143.229 212.848 142.873 213.907 142.473C215.792 141.761 217.639 141.612 219.621 141.336C222.08 140.995 224.271 140.588 226.757 140.588C229.27 140.588 231.784 140.588 234.297 140.588C234.93 140.588 235.755 140.343 235.598 141.246C235.139 143.899 232.213 145.424 230.991 147.739C229.316 150.911 227.612 154.223 226.443 157.612C226.263 158.134 224.923 160.33 224.902 160.185C224.573 157.879 224.049 155.403 224.513 153.08C224.982 150.734 225.955 148.147 227.026 146.004C227.167 145.722 228.555 142.879 227.161 143.715C219.216 148.482 222.464 156.753 222.464 164.15C222.464 169.692 223.641 175.203 222.673 180.77C222.362 182.561 222.566 184.365 222.254 186.156C222.205 186.441 222.005 189.3 221.806 188.968C219.678 185.422 217.06 181.216 216.809 176.94C216.73 175.604 216.27 174.419 216.27 173.036C216.27 170.638 215.569 168.399 215.193 166.05C214.868 164.017 214.261 162.096 213.159 160.365C212.824 159.839 212.54 159.319 212.231 158.779C212.104 158.556 212.122 160.795 212.366 161.337C212.897 162.518 213.977 163.186 214.595 164.284C215.1 165.182 213.098 162.869 212.381 162.13C211.231 160.947 210.169 159.535 208.731 158.689C207.779 158.13 207.33 157.374 206.367 156.745C205.31 156.054 203.961 155.616 202.807 155.069C201.486 154.443 200.127 153.853 198.887 153.109C197.638 152.36 195.706 151.873 194.309 151.479C191.922 150.805 189.788 149.373 187.458 148.532C183.669 147.163 180.505 144.943 176.522 143.969C172.171 142.905 167.702 142.473 163.238 142.473C160.76 142.473 158.281 142.473 155.803 142.473C154.574 142.473 151.785 141.993 153.469 143.341C154.275 143.985 155.447 144.358 156.491 144.358C157.269 144.358 157.719 144.554 156.761 144.089C154.585 143.032 151.492 141.734 149.101 141.665C147.722 141.626 145.182 140.489 145.182 142.623C145.182 144.049 145.182 145.475 145.182 146.901C145.182 149.24 145.182 151.579 145.182 153.917C145.182 155.284 145.176 154.002 144.912 153.304C144.313 151.718 143.428 150.035 142.429 148.666C141.937 147.992 141.275 147.475 140.813 148.397C140.586 148.852 140.836 149.931 140.544 150.222C140.217 150.549 138.868 150.061 139.946 151.075C140.654 151.741 141.605 152.144 142.459 152.571C143.384 153.034 144.103 153.751 144.793 154.441C146.289 155.937 145.671 153.452 145.122 152.765C144.438 151.911 144.148 150.952 143.626 150.013C143.095 149.058 140.884 147.26 139.796 147.32C138.904 147.37 137.642 148.614 137.642 149.474C137.642 150.931 137.03 148.196 136.969 147.903C136.79 147.044 136.834 146.175 136.834 145.3C136.834 144.039 136.834 142.777 136.834 141.516C136.834 137.257 136.834 132.999 136.834 128.74C136.834 124.135 136.296 119.618 136.296 115.037C136.296 111.796 136.296 108.554 136.296 105.313C136.296 88.7975 136.296 72.2819 136.296 55.7664C136.296 54.4699 136.296 53.1733 136.296 51.8768C136.296 51.0979 136.804 50.8891 136.266 50.3509C135.377 49.462 134.429 48.5366 133.348 47.8826C132.752 47.5213 131.634 47.5629 131.329 46.8653C130.791 45.6353 130.519 43.3257 128.876 42.8561C127.908 42.5797 126.988 41.588 126.198 40.9562C125.436 40.347 125.025 39.3011 124.388 38.5926C123.602 37.7192 122.761 37.5739 121.755 37.1265C119.946 36.3226 119.006 34.0616 117.177 33.1472" stroke="#434343" stroke-width="10" stroke-linecap="round"/>
<path d="M138.988 52.535C139.873 52.6334 141.124 54.4493 141.666 55.0932C142.461 56.0375 143.403 57.2483 144.359 58.0253C146.455 59.7284 148.628 61.3043 150.702 62.9171C152.293 64.1551 153.737 65.4225 155.264 66.672C156.121 67.3728 156.802 68.3504 157.718 68.9608C159.112 69.8905 159.806 70.9289 160.934 72.0575C162.406 73.5291 163.67 75.12 165.168 76.5604C166.681 78.0158 168.51 79.1485 170.015 80.5995C171.075 81.6214 172.319 82.4452 173.396 83.4419C174.529 84.4911 175.553 85.6609 176.687 86.733C180.01 89.8769 183.398 92.8685 187.129 95.5593C189.579 97.327 191.789 99.0167 194.609 100.197C196.765 101.099 198.145 102.199 199.86 103.593C201.092 104.594 201.821 105.874 202.672 107.183C203.874 109.033 205.562 110.633 206.98 112.314C209.393 115.173 212.185 117.715 214.655 120.527C216.986 123.182 219.877 125.057 222.464 127.409C224.111 128.906 225.354 130.623 226.503 132.51C226.827 133.042 230.354 138.689 227.819 136.788C226.56 135.844 225.134 135.364 223.81 134.544C221.515 133.122 219.429 131.145 217.288 129.488C213.416 126.492 208.676 124.408 205.021 121.2C201.426 118.046 197.907 114.955 194.519 111.566C191.924 108.972 189.634 105.78 186.77 103.488C186.253 103.075 185.611 102.586 186.291 103.667C187.541 105.656 189.239 107.264 190.899 108.903C194.843 112.799 199.143 116.393 203.196 120.183C205.58 122.413 207.611 124.949 209.927 127.244C211.469 128.771 213.27 129.975 214.924 131.373C215.949 132.239 219.188 133.213 216.27 132.241" stroke="#434343" stroke-width="10" stroke-linecap="round"/>
<path d="M134.68 45.2646C134.68 46.8618 137.374 48.7668 138.45 49.8423C140.207 51.5996 142.224 53.488 144.374 54.6893C146.087 55.6469 147.767 57.5138 149.116 58.8631C150.692 60.4386 152.474 61.7118 154.068 63.3061C155.181 64.4194 157.107 66.2409 158.586 66.8665C159.453 67.2336 160.156 68.1971 160.8 68.8412C161.121 69.1628 161.615 69.2704 161.981 69.5144C162.304 69.7292 162.255 70.1355 162.685 70.3073C163.526 70.6437 164.348 71.778 165.108 72.3268C166.158 73.0854 167.426 73.9719 168.339 74.885C169.65 76.1952 171.103 77.8325 172.708 78.8643C180.048 83.5833 186.193 89.7296 193.367 94.6618C194.855 95.6848 196.117 97.2743 197.69 98.1025C198.389 98.4702 199.632 99.5341 200.114 100.137C200.688 100.855 201.832 101.376 202.537 102.082C205.359 104.903 209.071 106.581 211.902 109.412C218.573 116.083 226.348 121.282 233.654 127.259C235.799 129.014 238.281 130.405 240.176 132.3C241.835 133.959 244.631 134.783 246.145 136.549C248.449 139.237 246.704 142.968 244.066 144.897C242.756 145.854 241.527 147.405 240.386 148.547C239.243 149.69 238.002 151.287 237.214 152.706C236.33 154.298 234.856 155.699 233.923 157.298C232.874 159.097 231.288 160.341 230.138 162.13C229.738 162.752 229.38 162.683 229.525 161.861C229.715 160.786 230.553 159.781 231.111 158.869C233.029 155.73 234.234 152.181 236.406 149.205C237.806 147.287 237.796 144.425 238.486 142.219C239.72 138.27 237.271 134.382 233.983 132.45C231.562 131.028 229.138 129.682 226.667 128.351C225.471 127.707 225.136 128.553 224.887 129.548" stroke="#434343" stroke-width="10" stroke-linecap="round"/>
<path d="M291 146C291 147.924 291.269 149.724 291.269 151.655C291.269 153.649 292.077 155.491 292.077 157.444C292.077 158.482 293.656 158.317 294.501 158.716C296.831 159.815 299.318 160.8 301.771 161.618C304.871 162.651 307.869 163.638 310.911 164.969C315.505 166.979 320.55 167.632 325.198 169.292C326.809 169.868 327.58 166.176 327.621 165.059C327.693 163.136 327.083 161.418 327.083 159.598C327.083 158.221 324.743 156.646 323.852 155.903C322.16 154.494 320.683 153.71 318.72 152.852C315.727 151.542 312.507 150.726 309.371 149.83C307.916 149.414 306.363 149.153 304.868 148.827C303.935 148.625 303.052 148.445 302.1 148.423C301.286 148.405 300.664 147.885 299.886 147.885C299.231 147.885 296.914 147.379 296.924 147.735C297.004 150.47 299.101 150.971 301.382 151.864C302.957 152.48 304.471 153.001 306.199 153.001C307.41 153.001 309.387 154.312 310.508 154.736C313.016 155.688 315.432 157.133 317.808 158.387C318.45 158.725 318.798 159.264 319.319 159.733C319.811 160.176 320.449 160.429 320.92 160.9C321.421 161.402 318.856 160.559 318.646 160.481C316.055 159.527 313.39 158.771 310.747 157.968C308.709 157.348 306.901 156.207 304.987 155.29C303.741 154.693 302.178 154.448 301.173 153.48C300.264 152.605 298.969 152.069 297.896 151.415C296.245 150.41 294.782 149.243 293.423 147.885" stroke="#434343" stroke-width="10" stroke-linecap="round"/>
<path d="M326.673 171.286C326.673 174.517 326.943 177.795 326.943 180.98C326.943 182.057 326.943 183.134 326.943 184.211C326.943 185.252 327.426 186.188 327.481 187.173C327.709 191.276 327.481 195.449 327.481 199.56" stroke="#434343" stroke-width="10" stroke-linecap="round"/>
<path d="M226.772 165.631C226.673 167.509 226.371 168.462 227.37 170.268C228.357 172.051 229.886 175.074 231.739 176.133C232.186 176.388 232.199 177.055 232.756 177.27C233.174 177.431 234.05 177.711 233.609 176.925C233.164 176.134 232.696 175.794 232.696 174.846C232.696 174.388 232.544 173.86 232.367 173.44C232.12 172.853 230.705 171.329 231.828 172.093C232.606 172.622 233.345 173.609 234.177 173.978C236.91 175.193 237.422 176.291 238.755 178.691C239.543 180.109 239.159 182.619 239.159 184.211C239.159 185.378 239.159 186.545 239.159 187.711C239.159 188.893 238.754 189.362 238.351 190.27C237.532 192.113 237.878 189.701 238.082 188.938C238.352 187.925 238.62 187.152 238.62 186.096C238.62 184.282 236.84 182.978 235.509 181.922C233.768 180.541 231.395 179.22 229.734 181.309C228.532 182.82 224.611 190.26 229.884 188.624C231.615 188.087 232.736 186.307 233.115 184.6C233.543 182.675 231.298 181.537 229.869 180.875C225.912 179.041 224.013 181.456 222.194 184.69C221.184 186.486 221.352 187.925 221.117 189.806C221.087 190.05 216.455 189.591 215.866 189.611C214.643 189.653 213.504 189.77 212.56 190.614C212.513 190.656 211.702 191.404 211.857 191.466C212.381 191.676 214.627 191.085 214.655 191.81C214.673 192.285 213.584 193.399 213.652 193.501C214.237 194.378 217.758 194.174 218.709 194.174C220.426 194.174 222.111 194.127 223.81 194.384C224.037 194.418 224.565 194.342 224.767 194.443C224.869 194.494 224.433 194.673 224.543 194.698C225.599 194.932 226.872 194.591 227.909 194.384C228.847 194.196 229.946 194.325 230.811 193.905C232.039 193.308 232.838 192.289 234.312 192.289C235.062 192.289 234.85 192.85 234.85 193.486C234.85 194.569 234.204 194.821 233.504 195.52C231.973 197.052 229.009 196.059 226.981 196.059C225.558 196.059 223.847 196.309 222.464 195.924C221.545 195.669 219.152 195.898 218.694 194.982" stroke="#434343" stroke-width="10" stroke-linecap="round"/>
<path d="M151.644 186.634C151.644 188.941 151.649 191.607 151.36 193.92C151.153 195.575 150.667 196.995 152.841 197.39C154.627 197.715 156.385 198.432 158.226 198.767C159.068 198.92 159.677 199.556 160.53 199.769C161.785 200.083 163.099 200.238 164.285 200.756C166.54 201.743 168.824 203.768 171.301 204.122C173.192 204.392 175.97 204.427 177.629 205.349C178.294 205.718 179.435 205.521 180.187 205.693C181.508 205.995 182.872 206.091 184.212 206.426C186.105 206.899 188.424 207.639 190.42 207.354C191.669 207.175 193.304 206.633 193.98 205.484C194.451 204.684 195.558 204.756 196.06 204.003C196.583 203.217 197.646 203.002 198.229 202.192C198.491 201.829 199.498 201.002 199.276 200.502C199.009 199.901 196.901 199.334 196.284 199.29C193.368 199.082 189.651 198.827 186.919 197.734C185.64 197.223 183.868 196.992 182.491 196.882C181.111 196.771 179.796 196.13 178.452 196.059C174.943 195.874 171.939 194.417 168.549 193.695C165.761 193.102 163.258 191.636 160.47 191.003C159.277 190.731 157.946 189.866 156.76 189.866" stroke="#434343" stroke-width="10" stroke-linecap="round"/>
<path d="M92.6729 71.1151C92.5415 72.2983 91.5486 73.8669 91.177 75.0495C90.959 75.7431 90.5187 77.856 90.5187 77.1289C90.5187 76.696 90.4397 76.1691 90.5786 75.7526C91.1128 74.15 93.2115 72.1389 93.2115 70.4419C93.2115 69.7523 94.2761 68.1687 94.7673 67.5547C95.0971 67.1424 94.7267 66.114 94.8421 65.5949C94.9736 65.0033 95.2522 64.5572 95.3806 63.9793C95.6619 62.7136 94.6433 64.6791 94.498 65.1312C94.1959 66.0711 93.8595 67.1143 93.2115 67.8838C92.0274 69.2898 91.5812 71.2433 90.5187 72.7308C90.3057 73.029 89.459 74.7034 89.4416 74.2866C89.3943 73.1501 90.3617 72.3505 90.7282 71.3245C91.3521 69.5774 92.4545 67.8761 93.6004 66.4028C94.2449 65.5742 95.2057 64.6758 95.635 63.71C95.8124 63.3108 96.4428 62.2409 96.4428 62.6778C96.4428 63.1995 96.0045 64.1919 95.8444 64.7123C95.6351 65.3926 95.0964 65.8866 95.0964 66.6421C95.0964 67.2605 95.0964 65.4055 95.0964 64.7871C95.0964 64.1775 96.1249 63.0069 95.5153 63.0069C95.2835 63.0069 94.4493 64.9515 94.3484 65.191C93.9634 66.1055 94.985 63.7245 95.246 63.5754C96.1182 63.077 95.9042 61.3893 95.9042 64.1588C95.9042 64.9118 95.9042 66.4177 95.9042 66.4177C95.9042 66.4177 95.9042 65.2409 95.9042 64.6525C95.9042 63.9793 95.9042 63.3061 95.9042 62.6329C95.9042 62.059 95.4403 63.6363 95.3806 63.9643C95.2332 64.7755 95.2909 64.4802 95.3657 63.8447C95.4223 63.3632 96.1638 62.6476 96.4428 62.229" stroke="#434343" stroke-width="10" stroke-linecap="round"/>
<path d="M96.1735 63.0369C96.1735 68.8569 95.0964 74.3492 95.0964 80.1209C95.0964 85.0117 94.2886 89.9456 94.2886 94.946C94.2886 96.8 94.0193 98.6457 94.0193 100.466C94.0193 102.164 94.2886 97.0777 94.2886 95.3799C94.2886 92.436 93.75 89.5849 93.75 86.6134C93.75 82.5212 94.2886 78.5563 94.2886 74.4811C94.2886 73.3991 95.1584 72.5917 95.3507 71.534C95.3922 71.306 95.559 70.3867 95.7845 70.3223C96.084 70.2367 96.6713 69.9973 96.4428 69.7688" stroke="#434343" stroke-width="10" stroke-linecap="round"/>
<path d="M96.7121 70.8458C96.7121 84.6138 96.7121 98.3817 96.7121 112.15C96.7121 119.335 96.7121 126.521 96.7121 133.707C96.7121 135.911 96.7121 138.115 96.7121 140.319C96.7121 140.786 96.9771 142.389 96.7121 142.742C96.2209 143.397 93.6813 142.827 93.0619 142.473C92.6037 142.211 92.0911 141.807 91.5959 141.665C89.9955 141.208 88.8374 139.773 87.437 138.973C86.7092 138.557 86.0297 138.322 85.2828 137.895C84.12 137.231 84.0296 135.952 84.0561 134.544C84.105 131.954 85.4016 129.301 86.0009 126.795C86.6356 124.141 88.1398 121.763 88.6338 119.046C89.1028 116.467 90.1172 114.206 90.2345 111.506C90.29 110.231 90.6925 106.503 90.1896 107.677C89.6583 108.917 89.6868 110.623 89.4267 111.94C89.0157 114.021 88.5083 116.087 88.1551 118.178C87.5254 121.909 87.5567 125.663 87.5567 129.428C87.5567 130.505 87.5567 131.582 87.5567 132.66C87.5567 134.26 87.5567 129.458 87.5567 127.857C87.5567 122.24 86.7489 116.695 86.7489 111.088C86.7489 109.51 86.5952 107.843 86.8835 106.285C86.9382 105.99 86.9858 105.26 87.0331 106.136C87.135 108.02 87.3825 109.898 87.5567 111.776C88.0973 117.602 89.4417 123.547 89.4417 129.398C89.4417 130.432 89.41 131.428 89.2322 132.45C88.926 134.211 89.17 130.559 89.1574 130.176C89.0464 126.79 88.6338 123.466 88.6338 120.063C88.6338 117.121 88.6338 114.179 88.6338 111.237" stroke="#434343" stroke-width="10" stroke-linecap="round"/>
<path d="M88.0951 119.046C87.9425 114.62 87.2135 110.17 86.8834 105.747C86.6778 102.993 86.8015 100.36 87.0031 97.6387C87.2921 93.7372 86.9219 89.6519 87.6912 85.8055C88.0549 83.9872 88.5867 82.1766 89.1722 80.42C89.5108 79.4042 89.6825 78.2988 90.1296 77.3233C90.3799 76.7773 90.825 76.3243 90.7879 75.6927C90.747 74.9984 89.7071 74.7961 89.1722 74.9447C87.9054 75.2966 87.0042 76.1976 86.4196 77.3084C84.9271 80.1441 83.7008 82.9544 82.4403 85.7906C80.5739 89.99 78.1135 94.0445 75.873 98.0276C73.8745 101.58 71.5401 105.712 68.6474 108.604C67.2963 109.955 66.6474 111.785 65.2067 113.062C63.403 114.662 61.7211 116.521 60.3597 118.508C57.4362 122.774 54.2206 126.858 51.324 131.163C49.6422 133.664 48.169 136.186 46.3424 138.584C45.0646 140.261 43.355 141.642 42.1986 143.416C41.7315 144.132 41.3137 145.207 40.8223 145.839C40.0226 146.867 39.5707 148.031 38.683 149.055C37.8302 150.039 37.0792 151.143 36.2745 152.167C34.854 153.975 33.5443 156.094 31.9512 157.687C28.9287 160.71 27.6925 164.616 25.3539 167.994C25.0043 168.499 22.129 170.594 22.8257 171.136C23.5813 171.724 25.3733 171.49 26.2964 171.57C27.2246 171.651 28.0542 171.824 29.0041 171.824C30.3656 171.824 32.0464 172.576 33.4322 172.961C35.3736 173.5 37.8127 173.419 39.6255 174.248C41.7199 175.205 44.2781 175.039 46.507 175.534C48.7993 176.044 51.1789 176.439 53.3586 177.269C55.2226 177.98 57.2881 178.245 59.148 178.96C61.3751 179.816 63.836 180.447 66.1641 181.099C67.7148 181.533 69.3191 181.686 70.8615 182.176C72.0993 182.57 73.6184 182.396 74.766 183.014C76.6609 184.034 79.6318 184.54 81.7671 184.764C83.5314 184.95 85.5437 185.518 87.2274 186.036C88.1608 186.323 89.2611 186.15 90.1895 186.425C90.7315 186.585 91.33 186.904 91.865 186.904C93.1005 186.904 93.9388 186.385 94.0192 185.019C94.0646 184.246 94.1583 182.122 94.827 181.787" stroke="#434343" stroke-width="10" stroke-linecap="round"/>
<path d="M95.7668 159.332C95.7668 163.348 95.7668 167.364 95.7668 171.38C95.7668 174.534 95.7668 177.688 95.7668 180.842C95.7668 181.639 95.7822 179.24 95.9259 178.455C96.1852 177.041 96.5795 175.656 96.8352 174.239C97.0245 173.189 97.1839 172.111 97.2955 171.05C97.3786 170.261 97.6506 169.482 97.7047 168.698C97.8131 167.126 97.7104 165.51 97.7104 163.936C97.7104 163.185 97.7104 162.435 97.7104 161.685C97.7104 161.559 97.6081 161.195 97.6081 161.321C97.6081 161.726 97.5133 162.105 97.5058 162.503C97.4819 163.769 97.4597 165.025 97.4092 166.288C97.377 167.092 97.2419 167.884 97.2046 168.686C97.1673 169.487 97.2526 170.293 97.1478 171.09C96.9649 172.48 96.9943 173.984 96.9943 175.387C96.9943 176.64 96.7897 177.878 96.7897 179.12C96.7897 182.628 95.5071 185.961 96.284 189.457C96.4704 190.296 96.8777 189.26 96.9716 188.895C97.0749 188.493 96.9943 187.957 96.9943 187.542C96.9943 187.033 96.7897 186.706 96.7897 186.212C96.7897 185.529 96.7767 184.87 96.9716 184.212C97.0792 183.849 96.3896 183.968 96.1703 183.928C95.3287 183.773 94.5495 183.404 93.7721 183.058C93.002 182.716 92.2129 182.33 91.5274 181.837C91.1156 181.54 90.8476 181.172 90.3908 180.916C89.0584 180.17 87.3926 180.001 85.9979 179.382C85.3565 179.097 84.6099 178.964 83.9237 178.768C82.8124 178.45 81.67 178.187 80.5708 177.847C79.0785 177.386 77.7835 177.126 76.229 176.949C72.2185 176.494 68.2973 175.323 64.3632 174.494C63.5697 174.327 62.8184 174.187 62.0616 173.858C61.2605 173.51 60.2687 173.495 59.5043 173.091C58.6275 172.626 57.5291 172.578 56.6288 172.113C55.4326 171.496 54.1127 170.743 53.2133 169.721C52.021 168.366 51.2595 166.993 51.0879 165.163C50.8205 162.31 52.5845 159.561 53.7021 157.082C54.3442 155.657 55.1028 154.69 56.3048 153.684C57.4183 152.751 58.6799 152.031 60.0101 151.456C60.131 151.404 61.6815 150.642 61.5786 151.115C61.3237 152.287 60.182 153.309 59.3509 154.093C58.4834 154.911 57.5153 155.679 56.9072 156.724C56.3532 157.676 55.9691 158.743 55.5206 159.747C54.7078 161.568 53.6203 163.589 53.5259 165.618C53.4695 166.831 53.4179 170.475 53.4179 169.26C53.4179 166.322 53.6057 163.622 55.4694 161.185C55.8051 160.746 56.194 160.352 56.5208 159.906C56.544 159.875 56.987 159.2 56.9981 159.378C57.0198 159.724 56.8624 160.061 56.7367 160.372C56.4917 160.979 56.3174 161.603 56.1798 162.242C55.7146 164.404 55.53 167.016 55.8957 169.209C55.9524 169.549 56.0638 169.912 56.0775 170.255C56.0827 170.384 56.0346 170.001 56.0093 169.874C55.8641 169.148 55.5819 168.461 55.4069 167.743C55.031 166.2 54.813 164.708 54.85 163.117C54.8783 161.901 55.7364 161.02 56.4526 160.105C57.8905 158.269 60.1831 157.296 62.4651 157.19C63.283 157.152 63.9894 157.649 64.6473 158.088C64.8911 158.25 64.5693 157.931 64.5223 157.9C64.1579 157.664 63.7128 157.543 63.2948 157.446C63.1729 157.417 61.7638 157.133 62.3344 157.19C63.3304 157.29 64.3112 157.71 65.3179 157.838C66.359 157.97 67.405 157.953 68.4492 158.008C68.8621 158.03 69.2531 158.065 69.5971 158.258C70.5683 158.805 71.7692 159.13 72.8079 159.514C73.7597 159.866 74.7328 160.214 75.7176 160.48C76.5185 160.697 77.3133 160.954 78.093 161.196C78.885 161.442 79.6095 161.828 80.4003 162.072C80.6966 162.163 80.7299 157.589 80.7299 157.184C80.7299 153.983 80.4027 150.794 80.9856 147.62C81.3288 145.752 81.7383 144.013 82.4916 142.261C83.1061 140.832 83.8498 139.989 85.1512 139.226C85.4896 139.028 86.6728 139.079 86.7992 139.584C86.8261 139.692 86.0307 139.721 85.8786 139.806C85.0894 140.248 84.336 140.549 83.5145 140.914C82.8626 141.204 83.1554 141.404 83.685 141.579C84.338 141.795 84.9832 141.991 85.674 142.034C86.0446 142.056 87.1592 142.045 86.7879 142.045C85.756 142.045 84.6949 142.248 83.685 142.454C82.6719 142.661 84.3927 142.655 84.617 142.636C84.7102 142.628 85.6468 142.466 85.3103 142.466C84.6193 142.466 83.8933 142.598 83.2304 142.784C83.0369 142.838 81.9962 143.105 81.9631 143.403C81.9591 143.439 83.309 143.281 83.3895 143.273C84.0646 143.2 84.7423 143.179 85.4183 143.119C85.4635 143.115 86.4673 143.071 85.9695 143.17C85.0519 143.354 83.9599 143.375 83.0258 143.375C82.5219 143.375 84.0201 143.21 84.5147 143.113C84.8688 143.045 85.197 142.971 85.5604 142.966C86.2101 142.957 85.3741 142.966 85.208 142.966C83.7702 142.966 82.5895 143.414 81.1959 143.676C80.5887 143.79 79.9845 143.879 79.366 143.886C79.2327 143.888 78.9704 143.826 78.8773 143.954C78.1529 144.951 76.8461 145.528 76.2859 146.648C75.7177 147.785 75.9222 149.407 75.9222 150.632C75.9222 151.842 76.0256 153.105 75.7971 154.297C75.6233 155.205 75.8827 156.089 75.9222 156.957C75.9286 157.099 75.6881 156.502 75.6778 156.485C75.2346 155.768 74.6186 155.181 73.9104 154.729C72.6918 153.951 71.266 153.634 69.9551 153.058C69.6922 152.943 69.2909 152.706 68.9947 152.706C68.6343 152.706 69.4477 153.278 69.7392 153.49C70.7705 154.24 71.8751 154.809 73.058 155.28C73.9314 155.629 74.8814 155.857 75.729 156.264C76.4172 156.594 74.5455 155.969 74.348 155.917C74.0343 155.834 73.6377 155.721 73.308 155.752C73.1705 155.765 74.1619 156.491 74.2059 156.519C74.8748 156.957 75.5687 157.262 76.3313 157.491C76.3924 157.509 77.2619 157.811 77.2122 157.662C77.0427 157.153 76.2175 156.752 75.8085 156.502C74.6171 155.773 73.3617 155.255 72.0351 154.826C69.3462 153.955 66.5645 153.285 63.9313 152.251C63.8959 152.238 62.7764 151.807 62.8743 151.979C63.1225 152.413 64.2778 152.249 64.636 152.206C65.7614 152.072 66.8324 151.685 67.8979 151.319C68.2969 151.183 69.2138 150.6 69.1254 151.013C69.0071 151.565 67.5088 151.936 67.1251 152.081C65.6897 152.623 64.2303 153.163 62.7151 153.434C62.4257 153.485 61.3059 153.782 60.9989 153.581C60.8953 153.514 61.1774 153.407 61.283 153.343C62.2394 152.761 63.231 152.229 64.2041 151.678C70.6355 148.03 76.7846 143.833 83.3611 140.448C84.1179 140.059 84.4499 139.91 85.191 139.584C85.3968 139.494 85.6026 139.403 85.8104 139.317C85.9489 139.26 86.2734 139.046 86.2423 139.192C86.1905 139.437 85.9297 139.583 85.7536 139.76C84.9886 140.53 84.1601 141.211 83.236 141.784C80.5573 143.443 77.454 144.417 74.4446 145.273C72.4663 145.835 70.4623 146.35 68.4321 146.688C67.7346 146.804 69.9461 145.902 69.9779 145.887C72.3428 144.764 74.6696 143.577 76.9621 142.312C78.7497 141.326 80.5879 140.093 82.5712 139.522C82.8992 139.427 82.5672 139.659 82.5257 139.692C81.7752 140.304 81.03 140.91 80.298 141.545C77.4312 144.031 74.5557 146.508 71.6941 149.001C70.8913 149.7 69.8878 150.577 69.08 151.308C68.954 151.422 67.8606 152.249 67.807 152.553C67.7774 152.721 68.1439 152.487 68.3014 152.422C69.1813 152.058 70.0147 151.589 70.8189 151.081C73.4047 149.448 75.8152 147.533 78.076 145.477C79.1125 144.535 80.2926 143.537 81.0481 142.335C81.7259 141.257 79.3574 142.622 79.3319 142.636C76.9245 143.914 74.6499 145.402 72.1715 146.552C71.2581 146.975 70.6033 147.256 69.6767 147.592C69.4047 147.69 69.1296 147.781 68.8527 147.864C68.6528 147.925 68.1756 148.188 68.2389 147.989C68.3189 147.738 68.6882 147.712 68.9095 147.569C70.3831 146.612 71.7666 145.521 73.1603 144.455C76.1965 142.131 79.2997 139.854 82.1733 137.328C82.3502 137.173 85.1097 134.951 84.1283 134.345C83.7756 134.127 83.2048 134.256 82.8723 134.328C81.2909 134.67 79.7874 135.44 78.3658 136.18C71.5963 139.708 65.3886 144.133 58.919 148.148C58.3716 148.488 59.8982 147.311 60.4022 146.91C63.4332 144.497 66.5021 142.134 69.546 139.738C72.3426 137.536 75.0432 135.197 77.9339 133.117C78.058 133.028 80.4806 131.126 79.7865 132.623C78.4524 135.5 75.9913 138.134 73.8025 140.357C69.8128 144.41 65.1846 147.842 60.3511 150.819C57.8102 152.385 55.1687 153.854 52.4405 155.07C52.3557 155.108 51.2261 155.587 50.9516 155.638C50.4444 155.733 51.5722 154.805 51.9574 154.462C60.486 146.863 69.9049 140.315 78.3488 132.611C79.4297 131.625 80.4735 130.657 81.4687 129.588C81.5782 129.47 82.9648 128.137 82.753 127.645C82.4854 127.023 78.2665 130.759 78.2465 130.776C71.3192 136.766 64.3957 142.847 57.8676 149.274C57.4867 149.649 56.4967 150.754 57.4869 149.569C59.9345 146.639 62.6507 143.929 65.2554 141.141C69.2719 136.842 73.249 132.519 77.0815 128.054C79.3927 125.361 81.6478 122.633 84.2192 120.183C84.334 120.074 84.8051 119.633 84.9693 119.433C85.1906 119.163 84.4192 119.862 84.1624 120.098C80.9871 123.011 77.6915 125.768 74.3707 128.514C69.4342 132.597 54.6026 144.805 59.3565 140.511C61.2396 138.81 63.2717 137.257 65.244 135.663C69.5768 132.162 73.9103 128.654 78.0135 124.883C81.0887 122.056 84.0388 119.081 86.7651 115.915C86.7923 115.884 88.8885 113.553 87.4812 114.46C84.4017 116.447 81.6605 119.009 78.7523 121.229C73.5604 125.191 68.123 128.802 62.7265 132.475C59.463 134.696 56.1305 136.878 53.0656 139.374C52.7751 139.611 52.3738 139.772 52.2188 140.113C52.195 140.165 52.324 140.065 52.3723 140.033C52.6369 139.86 53.629 139.155 53.7816 139.044C60.6569 134.048 67.1668 128.395 72.9784 122.195C75.1844 119.841 77.2729 117.39 79.366 114.938C79.4879 114.795 79.8179 114.346 79.7411 114.517C79.447 115.173 78.8014 115.953 78.417 116.506C75.9835 120.005 72.8223 122.767 69.3527 125.224C66.3282 127.365 63.0209 128.772 59.7146 130.384C58.2148 131.115 59.3359 131.088 60.2374 130.793C63.8576 129.609 67.3053 127.389 70.495 125.36C73.246 123.61 76.0342 121.763 78.5136 119.637C78.8846 119.319 81.7021 116.97 81.1618 116.131C81.0745 115.995 80.6053 115.931 80.5139 115.949C78.1209 116.419 75.4658 118.025 73.3535 119.046C71.6017 119.893 69.4192 120.964 67.6479 121.928C67.3504 122.089 66.5367 122.573 66.875 122.587C67.1218 122.597 67.656 122.438 67.8184 122.382C69.2829 121.882 70.6956 121.188 72.0862 120.518C75.3293 118.957 78.5494 117.242 81.5482 115.245C82.1071 114.872 84.4006 113.431 83.8555 112.341C83.4751 111.58 81.135 111.874 80.5139 111.892C79.279 111.927 77.824 111.971 76.7291 112.625C76.1103 112.994 76.5214 113.233 77.0587 113.233C78.7501 113.233 80.4704 112.52 81.9403 111.744C82.048 111.687 83.5086 110.968 83.4463 110.641C83.3904 110.348 81.8085 110.705 81.713 110.727C81.1601 110.851 80.7611 110.978 80.2241 111.17C79.986 111.255 78.8274 111.894 78.5249 111.755C78.4426 111.717 80.7334 109.393 80.889 109.232C81.4324 108.671 81.7543 108.31 82.2643 107.72C82.6117 107.319 83.2107 106.763 83.3781 106.22C83.8244 104.773 78.6156 106.495 78.1044 106.697C77.7878 106.823 76.1232 107.282 76.1609 107.857C76.1989 108.437 78.3277 108.311 78.6045 108.306C79.8343 108.282 81.2486 108.043 82.162 107.129C82.611 106.68 82.4858 105.984 82.0142 105.601C81.267 104.994 79.9547 104.957 79.0478 104.936C77.7683 104.906 76.7597 105.311 75.854 106.226C75.2471 106.839 72.7296 111.004 75.1663 110.778C76.3614 110.667 77.5957 109.86 78.6045 109.266C78.9439 109.066 79.4754 108.732 79.8093 108.505C80.0032 108.373 80.561 108.027 80.3264 108.027C80.1297 108.027 79.5823 108.257 79.5308 108.277C78.2272 108.799 76.9601 109.421 75.6949 110.028C72.262 111.672 68.7983 113.347 65.6134 115.443C64.3975 116.244 63.615 116.83 62.539 117.773C61.9167 118.319 60.9883 119.074 60.6693 119.904C60.3013 120.863 61.7703 120.539 62.1696 120.439C63.8944 120.005 65.5098 119.118 67.0569 118.268C69.4657 116.944 71.7504 115.418 74.0923 113.983C74.5159 113.723 75.4605 113.152 75.9335 112.892C76.1027 112.799 76.2734 112.707 76.4507 112.63C76.7156 112.516 76.7823 112.51 76.5928 112.772C75.2104 114.689 73.2455 116.349 71.5122 117.927C68.8979 120.307 66.2155 122.621 63.5562 124.951C62.696 125.705 60.0861 127.916 60.8625 127.076C62.1364 125.698 63.6121 124.447 64.9883 123.178C67.5993 120.769 70.275 118.436 73.0353 116.199C73.76 115.612 75.9764 113.905 75.263 114.506C73.7245 115.801 72.2335 117.161 70.7394 118.506C64.2416 124.359 58.0135 130.498 51.4744 136.305C51.2856 136.473 49.7787 137.899 51.0425 137.021C52.8541 135.763 54.5211 134.282 56.2139 132.873C57.8751 131.49 59.5474 129.786 61.4422 128.713C61.6068 128.62 61.9636 128.385 61.8116 128.798C61.4907 129.671 60.7032 130.54 60.1692 131.27C58.6203 133.388 56.9919 135.444 55.3046 137.453C53.5175 139.581 51.5715 141.601 49.9002 143.824C49.5301 144.316 49.5011 144.383 49.2183 144.835C49.1469 144.95 48.9041 145.239 49.0307 145.193C49.1456 145.152 49.4621 144.941 49.5081 144.909C50.4103 144.281 51.2769 143.598 52.1677 142.954C54.0402 141.6 55.9657 140.361 57.9301 139.147C58.4048 138.853 58.6512 138.702 59.0781 138.408C59.1724 138.343 59.4519 138.143 59.3622 138.215C57.8449 139.421 56.2509 140.53 54.6682 141.647C51.5928 143.818 48.6069 146.103 45.5983 148.364C45.0233 148.797 43.6694 149.809 43.0012 150.302C42.5987 150.6 41.3108 151.301 41.8021 151.206C42.1248 151.143 42.3964 150.924 42.6886 150.774C44.0362 150.08 45.376 149.37 46.7178 148.666C49.6022 147.15 52.4773 145.618 55.3615 144.102C55.8241 143.859 56.8401 143.324 57.3732 143.057C57.438 143.024 58.2384 142.546 58.3905 142.613C58.5422 142.681 58.1656 142.859 58.0381 142.966C57.1279 143.726 56.1911 144.454 55.2819 145.216C52.4384 147.6 49.706 150.106 46.9792 152.621C44.9177 154.522 42.8454 156.425 40.6314 158.15C40.5303 158.229 40.2189 158.453 40.3132 158.366C40.918 157.809 41.6299 157.327 42.2965 156.855C47.0158 153.514 51.9005 150.36 56.7822 147.262C59.995 145.223 56.0412 147.738 58.4643 146.194C58.557 146.134 58.6446 146.066 58.7428 146.017C59.0078 145.885 58.2701 146.375 58.0324 146.552C55.5025 148.434 52.9417 150.267 50.3378 152.047C47.3164 154.112 44.2583 156.121 41.1542 158.059C39.5134 159.084 37.7567 160.443 35.8919 161.06C35.6516 161.139 35.6645 161.049 35.8123 160.878C36.6099 159.957 37.6437 159.17 38.5742 158.4C40.735 156.613 42.9871 154.956 45.2459 153.297C45.8089 152.884 46.6301 152.285 47.1895 151.82C47.3018 151.726 48.0668 151.167 48.0192 150.882C47.9287 150.339 44.8918 151.966 44.8254 152.001C41.5358 153.745 38.3618 155.756 35.3009 157.872C32.9254 159.514 30.5015 161.265 28.5041 163.367C28.0941 163.799 26.9905 164.93 28.3109 164.765C30.2049 164.528 32.1247 163.261 33.7665 162.39C36.5169 160.93 39.1839 159.318 41.9328 157.855C42.2741 157.673 43.0706 157.24 43.507 157.082C44.3028 156.794 43.4212 157.696 43.3365 157.798C40.7087 160.976 37.7409 163.87 34.9031 166.857C34.6654 167.107 34.149 167.645 33.8915 167.97C33.5947 168.345 33.9916 168.115 34.1529 168.027C36.041 167.005 37.9273 165.995 39.8358 165.01C42.4421 163.664 45.0124 162.235 47.4964 160.674C48.7096 159.911 50.1041 159.164 51.1391 158.156C51.5407 157.765 50.0467 158.44 49.5422 158.685C46.765 160.031 44.1537 161.59 41.6373 163.379C39.5623 164.853 37.6187 166.505 35.5396 167.97C34.2999 168.844 36.3992 167.305 36.4943 167.249C40.9881 164.596 46.1621 163.217 50.4969 160.259C51.0942 159.851 50.6075 159.894 50.2469 160.173C48.5226 161.51 47.1748 163.483 45.979 165.277C45.3683 166.193 44.885 166.996 44.3253 167.942C43.9209 168.625 43.2299 169.547 43.0978 170.38C42.9808 171.117 43.6891 171.22 44.2344 171.153C45.232 171.029 46.1386 170.593 47.0474 170.192C47.2913 170.085 48.9506 169.181 49.2126 169.516C49.4796 169.857 49.2393 171.127 49.2865 171.556C49.3476 172.113 49.5888 172.386 49.1558 171.846C47.8576 170.228 46.5411 168.423 44.7004 167.391C44.224 167.124 43.7055 166.948 43.1603 166.908C42.7251 166.875 43.2542 167.272 43.3592 167.379C43.9753 168.009 44.5638 168.663 45.1777 169.294C45.5777 169.706 46.1675 170.126 46.4734 170.619C46.5148 170.685 45.4341 170.378 45.4051 170.369C44.2856 170.012 43.1563 169.745 42.0067 169.505C40.9871 169.291 39.9617 169.103 38.9493 168.857C38.8774 168.839 37.7876 168.56 38.4492 168.686C39.4019 168.868 40.2856 169.339 41.2452 169.459" stroke="#434343" stroke-width="6" stroke-linecap="round"/>
<path d="M14.4448 175.392C15.9182 174.95 16.8134 173.863 18.0023 173.04C18.1379 172.946 18.2335 172.815 18.3774 172.733C18.5419 172.639 18.3944 172.861 18.3831 172.863C18.269 172.886 19.0395 171.741 19.1048 171.653C19.5155 171.101 20.046 170.665 20.4744 170.13C21.0897 169.361 21.7529 168.438 22.2247 167.573C22.5952 166.893 23.1287 166.05 23.6511 165.47C24.0217 165.058 24.3201 164.509 24.6229 164.043C25.0644 163.364 25.7079 162.879 26.1857 162.242C26.6199 161.663 26.8696 161.026 27.237 160.406C27.4175 160.102 27.5926 159.777 27.7939 159.486C27.9656 159.238 27.9008 158.984 28.0042 158.719C28.8942 156.43 29.4333 153.929 30.8911 151.911C31.3664 151.252 31.7601 150.531 32.2493 149.87C32.7733 149.163 33.4646 148.553 34.0849 147.933C35.1025 146.915 36.1067 145.871 36.9548 144.705C37.4247 144.058 37.8242 143.328 38.2789 142.659C38.7219 142.007 39.2263 141.341 39.6087 140.658C40.2842 139.452 40.9678 138.275 41.7568 137.135C42.3099 136.336 42.9269 135.632 43.3991 134.782C44.1286 133.469 45.085 132.417 46.0758 131.304C47.1537 130.093 47.9603 128.745 48.6104 127.264C49.069 126.219 49.7166 125.285 50.1902 124.252C50.3968 123.801 50.5925 123.313 50.9631 122.962C51.1435 122.791 51.5145 122.694 51.7359 122.553C52.9448 121.783 53.9707 121.123 54.8502 119.95" stroke="#434343" stroke-width="6" stroke-linecap="round"/>
<path d="M53.0088 121.382C53.1534 120.587 54.1205 119.69 54.6227 119.132C55.4047 118.262 56.2645 117.465 57.0209 116.574C57.5411 115.962 58.2668 115.597 58.8394 115.04C59.4185 114.477 59.9829 113.893 60.5841 113.352C62.3635 111.751 63.4915 109.646 65.0849 107.885C66.166 106.69 67.0671 105.438 67.9491 104.089C69.0132 102.462 70.1958 100.913 71.2963 99.3097C73.0901 96.6966 74.8209 94.0436 76.6155 91.4333C77.1534 90.6509 77.693 89.8011 78.1158 88.9555C78.4422 88.3027 78.991 87.3707 78.991 86.6199C78.991 86.5287 78.6324 87.0526 78.5818 87.137C78.3431 87.5348 78.1448 87.9068 77.968 88.3361C77.6382 89.1372 77.2099 89.6527 76.5757 90.2399C75.7409 91.0129 74.9086 91.791 74.1946 92.6835C73.642 93.3743 73.0035 94.0646 72.5238 94.8089C72.0226 95.5867 71.347 96.2085 70.9099 97.0366C70.4411 97.9249 69.8742 98.7963 69.296 99.6166C68.6823 100.487 68.2524 101.482 67.6138 102.333C66.7108 103.537 65.7879 104.728 64.886 105.93C63.9839 107.133 63.2488 108.454 62.3685 109.675C61.4625 110.932 60.7239 112.327 59.8624 113.619C58.9837 114.937 58.2723 116.374 57.4017 117.705C56.591 118.945 55.8861 120.257 55.2365 121.587C54.9809 122.11 54.7789 122.619 54.3954 123.064C54.2123 123.277 53.8511 124.003 53.8726 123.723C53.9208 123.097 54.7074 122.252 55.0717 121.797C55.9015 120.76 57.004 119.923 58.0438 119.109C60.1944 117.425 62.0077 115.364 64.17 113.676C67.0362 111.439 69.4544 108.682 72.4045 106.55C74.0034 105.394 75.6215 104.252 77.1042 102.947C78.5277 101.694 79.8222 100.308 81.1846 98.9915C82.0441 98.161 82.9391 97.3662 83.7532 96.491C83.8249 96.414 83.3578 98.2354 83.2759 98.5085C82.6985 100.433 81.9601 102.238 80.9345 103.97C80.8227 104.158 79.8707 106.051 80.2923 104.896C80.8371 103.404 81.3791 101.884 81.8097 100.355C81.9876 99.7235 82.1528 99.0616 82.162 98.4005C82.167 98.0412 81.9649 98.6565 81.9574 98.6733" stroke="#434343" stroke-width="6" stroke-linecap="round"/>
<path d="M89.834 71.7704C89.2554 72.2767 88.6809 72.7337 88.2086 73.3502C87.4612 74.3261 86.8982 75.4421 86.2083 76.4588C84.885 78.4088 84.0494 80.5969 82.7644 82.5565C81.7387 84.1208 80.3181 85.352 79.099 86.7505C78.2032 87.7779 77.3192 88.8008 76.4792 89.8761C75.5973 91.0048 74.7368 92.1689 73.7968 93.2517C72.8916 94.2945 72.4277 95.5549 71.7283 96.7069C71.371 97.2953 71.0922 97.8632 70.6031 98.3663C70.2659 98.7131 70.3495 98.451 70.4439 98.0367C70.6709 97.0404 71.1986 96.013 71.6828 95.1271C72.9964 92.7238 74.516 90.5776 76.2803 88.5065C77.4162 87.173 78.3898 85.7122 79.5025 84.3523C80.0228 83.7163 80.4246 82.9861 80.8777 82.3065C81.5343 81.3216 82.3697 80.393 83.0827 79.4423C84.3252 77.7856 85.6567 75.913 86.4583 73.9981C86.5078 73.8798 86.9786 72.7227 86.7538 72.8672C86.3313 73.1388 86.0082 73.7924 85.6911 74.1799C85.2468 74.723 84.9528 75.3426 84.6171 75.953C83.1676 78.5884 81.1475 80.8161 79.4513 83.2782C78.6367 84.4607 77.6984 85.549 76.8201 86.6823C75.7937 88.0068 74.9456 89.4472 73.956 90.7967C72.6168 92.6228 71.7563 94.7598 70.3757 96.5478C68.9091 98.4472 67.5183 100.411 66.0454 102.305C65.3836 103.155 64.6763 103.971 64.0052 104.816C63.0719 105.992 62.4673 107.343 61.6468 108.59C60.3711 110.529 59.0827 112.369 57.9416 114.403C57.4012 115.367 56.8551 116.349 56.3617 117.336C55.8053 118.449 55.3079 120.054 54.2363 120.768" stroke="#434343" stroke-width="6" stroke-linecap="round"/>
<path d="M96.6876 58.9839C96.3551 59.3677 95.9681 59.8223 95.7783 60.2967C95.5964 60.7516 95.6874 60.0009 95.7102 59.8818C95.9196 58.7879 96.4898 57.5095 97.0513 56.5517C97.2541 56.2057 97.3984 55.904 97.7105 55.6083C98.0103 55.3243 98.3884 55.1148 98.5289 54.6934C99.1252 52.9042 97.4886 58.32 96.8922 60.1091" stroke="#434343" stroke-width="6" stroke-linecap="round"/>
<path d="M114.077 36.9912C114.927 37.8407 115.917 38.6493 116.714 39.5485C117.112 39.997 117.641 40.3332 117.913 40.8783C118.324 41.7 119.057 42.3798 119.698 43.0208C120.85 44.1731 122.252 45.0365 123.295 46.3112C124.321 47.5651 125.64 48.5318 126.682 49.7777C127.921 51.2592 129.988 51.8443 131.183 53.3579C131.87 54.2291 132.783 54.8808 133.456 55.7561C134.649 57.3097 135.798 58.8339 137.093 60.3138" stroke="#434343" stroke-width="6" stroke-linecap="round"/>
<path d="M159.597 187.053C159.94 187.334 160.518 187.359 160.933 187.463C161.673 187.648 162.444 187.685 163.177 187.895C164.298 188.215 165.408 188.545 166.536 188.844C167.293 189.044 168.005 189.301 168.781 189.452C169.717 189.634 170.611 190.042 171.543 190.202C173.529 190.543 175.462 191.209 177.441 191.605C179.343 191.986 181.225 192.472 183.147 192.782C185.482 193.158 187.808 193.582 190.126 194.004C193.208 194.564 196.305 195.497 199.468 195.726C201.992 195.908 204.429 196.669 206.97 196.669C208.615 196.669 210.13 196.677 211.709 196.135C212.022 196.027 215.197 195.315 214.414 194.532C214.064 194.182 213.627 194.67 213.403 194.907C212.779 195.565 212.103 196.007 211.243 196.305C210.403 196.597 209.504 196.715 208.697 197.101C208.273 197.304 207.751 197.669 207.265 197.692C206.95 197.707 208.567 194.712 208.754 194.441C209.078 193.971 209.284 193.474 209.447 192.93C209.505 192.739 209.22 193.257 209.084 193.401C208.727 193.778 208.297 194.088 207.862 194.367C207.07 194.876 206.164 195.232 205.447 195.851C205.264 196.008 204.894 196.586 204.662 196.652C204.564 196.68 205.075 195.82 205.14 195.748C205.646 195.187 206.445 194.863 207.163 194.669C207.776 194.502 207.396 194.691 207.083 194.953C206.232 195.665 205.519 196.451 204.765 197.26C204.067 198.008 203.273 198.689 202.679 199.527C202.36 199.979 202.31 200.419 202.105 200.897C201.905 201.365 202.887 199.021 202.747 199.51C202.588 200.069 201.998 200.56 201.662 201.022C201.185 201.678 200.628 202.248 200.184 202.931C198.925 204.87 197.919 206.878 196.991 208.989C196.658 209.744 196.122 210.485 195.32 210.762C194.675 210.986 193.664 210.722 193.052 210.524C192.688 210.406 192.001 210.228 191.819 209.865" stroke="#434343" stroke-width="6" stroke-linecap="round"/>
<path d="M149.454 201C149.299 201.602 149.214 202.222 149.05 202.819C148.931 203.253 149.034 202.783 149.252 202.684C149.774 202.449 150.554 202.8 151 202.438" stroke="#434343" stroke-width="6" stroke-linecap="round"/>
<path d="M149.368 201.477C151.255 202.083 153.339 202.373 155.295 202.659C156.559 202.843 157.9 203.361 159.137 203.682C162.891 204.655 166.694 205.464 170.542 205.978" stroke="#434343" stroke-width="6" stroke-linecap="round"/>
<path d="M210.743 197.59C211.374 198.168 212.866 198.111 213.698 198.181C214.732 198.267 215.75 198.359 216.784 198.414C217.925 198.474 219.003 198.612 220.154 198.612C220.864 198.612 221.538 198.809 222.245 198.817C223.158 198.827 224.053 198.863 224.962 198.914C226.623 199.006 228.259 199.124 229.929 199.124C231.387 199.124 232.862 198.983 234.282 198.664C235.918 198.295 237.079 197.699 238.237 196.487C238.621 196.085 238.868 195.496 239.18 195.032C239.56 194.468 239.947 193.916 240.306 193.339C241.491 191.429 241.78 189.459 242.045 187.258" stroke="#434343" stroke-width="6" stroke-linecap="round"/>
<path d="M232.122 167.823C233.068 167.983 233.816 168.032 234.583 168.596C235.199 169.048 235.959 169.372 236.526 169.868C236.995 170.279 237.506 170.648 237.93 171.119C239.276 172.615 239.351 175.21 239.385 177.086C239.396 177.701 239.64 178.304 239.686 178.921C239.734 179.565 239.653 180.215 239.697 180.859C239.737 181.434 240.08 181.958 240.101 182.53C240.12 183.054 240.446 182.31 240.51 182.144C240.851 181.256 240.987 182.332 241.124 182.763C241.272 183.23 241.377 184.269 241.789 184.599C242.01 184.775 241.942 185.719 241.942 186.031" stroke="#434343" stroke-width="6" stroke-linecap="round"/>
<path d="M331.345 156.877C332.543 157.132 333.748 157.497 334.903 157.9C335.047 157.95 336.916 158.544 336.108 158.514C334.943 158.471 333.764 157.44 332.8 156.877C332.029 156.427 331.204 156.024 330.368 155.707C329.87 155.518 329.36 155.369 328.981 154.974C328.334 154.297 327.527 153.985 326.697 153.598C326.575 153.542 325.343 152.961 325.532 152.74C325.881 152.332 327.25 152.967 327.64 153.093C328.331 153.315 328.95 153.725 329.663 153.911C330.034 154.008 330.341 153.977 330.652 154.172C331.3 154.581 332.23 154.568 332.88 154.985C333.278 155.241 333.817 155.315 334.164 155.599C334.879 156.184 335.121 156.995 335.312 157.9C335.481 158.703 335.335 159.695 335.335 160.514C335.335 161.117 335.484 161.849 335.079 162.344C334.648 162.871 334.456 162.992 333.806 163.276C333.549 163.389 333.256 163.605 333.039 163.782C332.832 163.951 332.611 163.951 332.368 164.061C331.909 164.267 331.385 164.414 331.039 164.799C330.468 165.433 330.22 166.426 330.22 167.266C330.22 168.664 330.187 170.206 329.936 171.585C329.648 173.171 329.483 174.815 329.305 176.415C329.264 176.787 329.328 177.168 329.294 177.54C329.253 177.989 329.095 178.416 329.095 178.87C329.095 179.151 328.899 179.948 329.049 179.711C329.512 178.984 329.668 177.825 329.913 177.006C330.492 175.07 330.629 172.714 330.629 170.681C330.629 170.05 330.732 169.433 330.732 168.8C330.732 168.496 330.648 168.059 330.828 167.789C330.938 167.623 330.775 168.182 330.754 168.38C330.697 168.937 330.636 169.476 330.527 170.028C330.255 171.41 330.105 172.863 329.993 174.267C329.857 175.959 329.811 177.707 329.811 179.404C329.811 180.678 329.58 181.889 329.51 183.155C329.422 184.728 329.402 186.286 329.402 187.872C329.402 189.521 329.3 191.216 329.3 192.884C329.3 195.157 329.62 197.428 329.817 199.687C329.894 200.571 330.016 201.455 330.016 202.346C330.016 202.982 330.026 203.596 330.197 204.216C330.38 204.878 330.839 203.36 330.913 203.136C331.045 202.74 330.917 202.221 331.09 201.84C331.327 201.317 331.182 200.42 331.294 199.834C331.489 198.821 331.262 197.78 331.243 196.771C331.194 194.116 331.141 191.456 331.141 188.793C331.141 187.522 331.345 186.279 331.345 185.002C331.345 183.585 331.448 182.18 331.448 180.768C331.448 179.244 331.379 177.73 331.345 176.211C331.31 174.581 331.404 172.808 331.192 171.193C330.953 169.378 330.657 167.601 330.436 165.782C330.422 165.669 330.503 165.145 330.305 165.231C329.295 165.673 328.516 166.797 327.686 167.493C326.414 168.559 325.691 169.809 325.208 171.38C324.715 172.982 323.929 174.472 323.52 176.108C323.39 176.629 323.16 177.166 323.065 177.688C323.05 177.773 323.037 176.753 323.009 176.506C322.911 175.643 322.837 174.774 322.753 173.909C322.736 173.737 322.658 172.262 322.571 172.983C322.399 174.404 322.548 175.925 322.548 177.359C322.548 178.173 322.548 178.988 322.548 179.802C322.548 183.267 322.753 186.768 322.753 190.23C322.753 190.961 322.753 191.693 322.753 192.424C322.753 193.145 322.623 194.02 322.776 194.725C323.075 196.112 322.993 197.529 323.168 198.925C323.237 199.478 323.367 199.941 323.367 200.511C323.367 200.996 323.367 201.481 323.367 201.965C323.367 202.263 323.296 202.518 323.264 202.807C323.244 202.985 323.931 202.704 324.191 202.704C324.958 202.704 325.561 202.98 326.282 203.204C326.719 203.34 327.598 203.221 327.867 203.625" stroke="#434343" stroke-width="6" stroke-linecap="round"/>
<path d="M82.16 167.88C83.7506 168.344 85.4161 167.431 85.88 165.84C86.3439 164.249 85.4306 162.584 83.84 162.12L82.16 167.88ZM59.84 155.12L56.96 154.28L55.28 160.04L58.16 160.88L59.84 155.12ZM83.84 162.12L59.84 155.12L58.16 160.88L82.16 167.88L83.84 162.12Z" fill="#434343"/>
<path d="M56 172C56 173.657 57.3431 175 59 175C60.6569 175 62 173.657 62 172L56 172ZM62 162L62 159L56 159L56 162L62 162ZM62 172L62 162L56 162L56 172L62 172Z" fill="#434343"/>
<path d="M59 160C59 161.657 60.3431 163 62 163C63.6569 163 65 161.657 65 160H59ZM65 158V155H59V158H65ZM65 160V158H59V160H65Z" fill="#434343"/>
<path d="M91.4786 179.954C93.1103 180.242 94.6664 179.153 94.9544 177.521C95.2423 175.89 94.153 174.334 92.5214 174.046L91.4786 179.954ZM58.5214 168.046L55.567 167.524L54.5243 173.433L57.4786 173.954L58.5214 168.046ZM92.5214 174.046L58.5214 168.046L57.4786 173.954L91.4786 179.954L92.5214 174.046Z" fill="#434343"/>
<path d="M96 158C96 156.343 94.6569 155 93 155C91.3431 155 90 156.343 90 158H96ZM90 176V179H96V176H90ZM90 158V176H96V158H90Z" fill="#434343"/>
<path d="M93 157L99 159" stroke="#434343" stroke-width="6" stroke-linecap="round"/>
<path d="M109 55V107" stroke="#434343" stroke-width="4" stroke-linecap="round"/>
<path d="M109 115V139" stroke="#434343" stroke-width="4" stroke-linecap="round"/>
<path d="M120 132V139" stroke="#434343" stroke-width="4" stroke-linecap="round"/>
<path d="M120 72V125" stroke="#434343" stroke-width="4" stroke-linecap="round"/>
<path d="M103.5 154.5L116.499 158.5" stroke="#434343" stroke-width="6.5" stroke-linecap="round"/>
<path d="M109 175V185" stroke="#434343" stroke-width="4" stroke-linecap="round"/>
<path d="M109 192V278" stroke="#434343" stroke-width="4" stroke-linecap="round"/>
<path d="M120 215V296" stroke="#434343" stroke-width="4" stroke-linecap="round"/>
<path d="M120 303L120 315" stroke="#434343" stroke-width="4" stroke-linecap="round"/>
<path d="M120 329L120 338" stroke="#434343" stroke-width="4" stroke-linecap="round"/>
<path d="M109 317L109 402" stroke="#434343" stroke-width="4" stroke-linecap="round"/>
<path d="M120 418L120 510" stroke="#434343" stroke-width="4" stroke-linecap="round"/>
<path d="M109 424L109 440" stroke="#434343" stroke-width="4" stroke-linecap="round"/>
<path d="M109 485L109 497" stroke="#434343" stroke-width="4" stroke-linecap="round"/>
<path d="M115 515L115 560" stroke="#434343" stroke-width="4" stroke-linecap="round"/>
<path d="M300 232L300 316" stroke="#434343" stroke-width="4" stroke-linecap="round"/>
<path d="M288.497 214.999V381.002" stroke="#434343" stroke-width="6" stroke-linecap="round"/>
<path d="M314 287L314 316" stroke="#434343" stroke-width="4" stroke-linecap="round"/>
<path d="M313 236L313 262" stroke="#434343" stroke-width="4" stroke-linecap="round"/>
<path d="M332 162L332 436M322 170L322 389" stroke="#434343" stroke-width="6" stroke-linecap="round"/>
<path d="M313 222L313 230" stroke="#434343" stroke-width="4" stroke-linecap="round"/>
<path d="M323 203L331 208" stroke="#434343" stroke-width="4" stroke-linecap="round"/>
<path d="M288 161L320 173" stroke="#434343" stroke-width="4" stroke-linecap="round"/>
<path d="M287 142V182" stroke="#434343" stroke-width="4" stroke-linecap="round"/>
<path d="M289 142V182" stroke="#434343" stroke-width="4" stroke-linecap="round"/>
<path d="M300 145V184" stroke="#434343" stroke-width="4" stroke-linecap="round"/>
<path d="M336 155L416 176" stroke="#434343" stroke-width="4" stroke-linecap="round"/>
<path d="M426 166L416 176" stroke="#434343" stroke-width="4" stroke-linecap="round"/>
<path d="M425 165L415 175" stroke="#434343" stroke-width="4" stroke-linecap="round"/>
<path d="M268 138H253" stroke="#434343" stroke-width="4" stroke-linecap="round"/>
<path d="M266 136H251" stroke="#434343" stroke-width="4" stroke-linecap="round"/>
<path d="M255 137L233 166" stroke="#434343" stroke-width="4" stroke-linecap="round"/>
<path d="M303 184L234 167" stroke="#434343" stroke-width="4" stroke-linecap="round"/>
<path d="M305 187L236 170" stroke="#434343" stroke-width="4" stroke-linecap="round"/>
<path d="M298 216L221 200" stroke="#434343" stroke-width="4" stroke-linecap="round"/>
<path d="M234 202L219 202" stroke="#434343" stroke-width="4" stroke-linecap="round"/>
<path d="M217 200L202 200" stroke="#434343" stroke-width="4" stroke-linecap="round"/>
<path d="M207 200L197 213" stroke="#434343" stroke-width="4" stroke-linecap="round"/>
<path d="M149.5 204.5L196.5 213.5" stroke="#434343" stroke-width="4" stroke-linecap="round"/>
<path d="M219 281L219.5 200" stroke="#434343" stroke-width="6" stroke-linecap="round"/>
<path d="M301 214L223 198" stroke="#434343" stroke-width="4" stroke-linecap="round"/>
<path d="M313 148L313 181" stroke="#434343" stroke-width="3" stroke-linecap="square"/>
<path d="M269 126L261 137" stroke="#434343" stroke-width="4" stroke-linecap="round"/>
<path d="M271 127L264 137" stroke="#434343" stroke-width="4" stroke-linecap="round"/>
<path d="M288 143L264 137" stroke="#434343" stroke-width="4" stroke-linecap="round"/>
<path d="M415 174L265 135" stroke="#434343" stroke-width="4" stroke-linecap="round"/>
<path d="M300 325L300 346" stroke="#434343" stroke-width="4" stroke-linecap="round"/>
<path d="M309 345L309 375" stroke="#434343" stroke-width="4" stroke-linecap="round"/>
<path d="M227 376L227 423" stroke="#434343" stroke-width="6" stroke-linecap="round"/>
<path d="M206 325L207 372" stroke="#434343" stroke-width="4" stroke-linecap="round"/>
<path d="M228 325L227 372" stroke="#434343" stroke-width="4" stroke-linecap="round"/>
<path d="M184 330L188 374" stroke="#434343" stroke-width="4" stroke-linecap="round"/>
<path d="M175 338.001C179 320.5 258 319 263 338.001" stroke="#434343" stroke-width="7" stroke-linecap="round"/>
<path d="M176 338C179.909 320.108 257.114 318.574 262 338" stroke="#434343" stroke-width="9" stroke-linecap="round"/>
<path d="M178 354.118C211.794 346.215 228.691 345.086 260 356" stroke="#434343" stroke-width="9" stroke-linecap="round"/>
<path d="M250 328L246 374" stroke="#434343" stroke-width="4" stroke-linecap="round"/>
<path d="M263 339L260 374" stroke="#434343" stroke-width="7" stroke-linecap="round"/>
<path d="M175 339L178 375" stroke="#434343" stroke-width="7" stroke-linecap="round"/>
<path d="M188 327L188 353" stroke="#434343" stroke-width="6" stroke-linecap="round"/>
<path d="M283 383L283 426" stroke="#434343" stroke-width="6" stroke-linecap="round"/>
<path d="M255 427L255 477" stroke="#434343" stroke-width="6" stroke-linecap="round"/>
<path d="M311 434L311 484" stroke="#434343" stroke-width="6" stroke-linecap="round"/>
<path d="M333 493L333 543" stroke="#434343" stroke-width="6" stroke-linecap="round"/>
<path d="M311 542L311 583" stroke="#434343" stroke-width="6" stroke-linecap="round"/>
<path d="M255 535V579" stroke="#434343" stroke-width="6" stroke-linecap="round"/>
<path d="M199 535V579" stroke="#434343" stroke-width="6" stroke-linecap="round"/>
<path d="M283 483L283 533" stroke="#434343" stroke-width="6" stroke-linecap="round"/>
<path d="M227 479L227 529" stroke="#434343" stroke-width="6" stroke-linecap="round"/>
<path d="M171 482L171 532" stroke="#434343" stroke-width="6" stroke-linecap="round"/>
<path d="M198 427L198 477" stroke="#434343" stroke-width="6" stroke-linecap="round"/>
<path d="M98 437L77 442" stroke="#434343" stroke-width="6" stroke-linecap="round"/>
<path d="M99 490L78 495" stroke="#434343" stroke-width="6" stroke-linecap="round"/>
<path d="M171 377L171 424" stroke="#434343" stroke-width="6" stroke-linecap="round"/>
<path d="M355.25 407.998V594" stroke="#434343" stroke-width="7.5" stroke-linecap="round"/>
<path d="M77 410L77 592" stroke="#434343" stroke-width="7.5" stroke-linecap="round"/>
<path d="M77 410.5C78.5 400.5 98 394 98 394" stroke="#434343" stroke-width="8" stroke-linecap="round"/>
<path d="M120 408L120 413" stroke="#434343" stroke-width="4" stroke-linecap="round"/>
<path d="M120 345L120 387" stroke="#434343" stroke-width="4" stroke-linecap="round"/>
<path d="M150 182L201 193" stroke="#434343" stroke-width="4" stroke-linecap="round"/>
<path d="M134 153L148 163" stroke="#434343" stroke-width="6" stroke-linecap="round"/>
<path d="M150 149L211 163" stroke="#434343" stroke-width="6" stroke-linecap="round"/>
<path d="M149 147L149 581" stroke="#434343" stroke-width="6" stroke-linecap="round"/>
<path d="M116 27L254 136" stroke="#434343" stroke-width="8" stroke-linecap="round"/>
<path d="M113 35L136 59" stroke="#434343" stroke-width="8" stroke-linecap="round"/>
<path d="M133 581L133 59" stroke="#434343" stroke-width="6" stroke-linecap="round"/>
<path d="M205.256 162.749C206.134 163.122 206.962 163.651 207.743 164.192C207.999 164.369 208.177 164.611 208.415 164.806C208.66 165.006 208.967 165.304 209.152 165.543C209.364 165.816 209.631 166.094 209.77 166.399C210.039 166.992 210.524 167.479 210.783 168.061C211.076 168.721 211.349 169.473 211.462 170.21C211.693 171.713 211.888 173.213 211.888 174.754C211.888 176.315 211.704 177.818 211.704 179.387C211.704 180.107 211.95 180.816 211.95 181.54C211.95 182.033 212.073 182.518 212.073 183.014C212.073 183.648 212.073 184.283 212.073 184.918C212.073 185.323 212.159 185.868 212.059 186.269C211.95 186.703 211.68 187.121 211.534 187.545C211.457 187.765 211.297 188.122 211.151 188.295C211.037 188.431 210.971 188.609 210.848 188.752C210.737 188.882 210.551 189.043 210.49 189.203C210.202 189.95 209.38 190.463 208.954 191.12C208.553 191.741 207.853 192.073 207.235 192.471C206.841 192.724 206.477 192.956 206.055 193.16C205.521 193.417 204.941 193.566 204.396 193.808C203.987 193.99 203.511 194.069 203.08 194.177C202.816 194.243 202.586 194.344 202.312 194.378C202.184 194.394 201.983 194.428 201.879 194.497" stroke="#434343" stroke-width="5" stroke-linecap="round"/>
<path d="M203.045 162.257C203.481 162.257 203.773 162.226 204.103 162.489C204.291 162.64 204.639 162.65 204.813 162.824C204.997 163.008 205.207 163.117 205.365 163.315C205.49 163.471 205.736 163.595 205.87 163.762C206.18 164.149 206.616 164.372 206.914 164.745C207.056 164.922 207.278 165.01 207.405 165.232C207.46 165.328 207.798 165.658 207.897 165.71C208.139 165.838 208.346 166.099 208.524 166.297C208.69 166.481 208.919 166.654 209.05 166.863C209.104 166.95 209.282 167.058 209.306 167.143C209.33 167.227 209.388 167.399 209.446 167.464C209.611 167.647 209.715 167.888 209.893 168.03C209.992 168.109 210.317 168.589 210.35 168.736C210.377 168.857 210.6 169.309 210.691 169.381C210.769 169.443 210.807 169.668 210.892 169.763C210.975 169.856 211.06 169.968 211.093 170.084C211.168 170.344 211.212 170.67 211.336 170.916" stroke="#434343" stroke-width="5" stroke-linecap="round"/>
<path d="M196.505 191.657C209.808 194.996 219.415 173.144 200.042 162.346M196 190.663C205.601 191.657 206.611 189.173 208.798 184.702C210.149 180.23 210.427 176.256 209.43 172.778C207.875 167.35 197.516 160.359 199.032 162.346" stroke="#434343" stroke-width="2"/>
<path d="M240 172C249.5 181 246.5 197 236 201" stroke="#434343" stroke-width="3"/>
<path d="M301.991 186C318.595 195.31 313.352 211.862 295 216" stroke="#434343" stroke-width="3"/>
<path d="M303 183.5C320 189.5 318.5 216 297.5 216.5" stroke="#434343" stroke-width="3"/>
<path d="M301.5 183C318.5 189 317 215.5 296 216" stroke="#434343" stroke-width="3"/>
<line x1="211.202" y1="285.167" x2="188.167" y2="300.798" stroke="#434343" stroke-width="6" stroke-linecap="round"/>
<line x1="228.233" y1="284.718" x2="247.718" y2="301.767" stroke="#434343" stroke-width="6" stroke-linecap="round"/>
<line x1="227" y1="284" x2="213" y2="284" stroke="#434343" stroke-width="6" stroke-linecap="round"/>
<line x1="249" y1="328" x2="249" y2="303" stroke="#434343" stroke-width="6" stroke-linecap="round"/>
<line x1="188" y1="325" x2="188" y2="302" stroke="#434343" stroke-width="6" stroke-linecap="round"/>
<path d="M150.5 428C233.725 419.679 276.362 421.856 354 442M150.5 535C233.725 526.679 276.362 529.356 354 549.5M150.5 482C233.725 473.679 276.362 476.356 354 496.5" stroke="#434343" stroke-width="8" stroke-linecap="round"/>
<path d="M77.0222 593.021C148.5 574.5 299 577 356.022 594.972" stroke="#434343" stroke-width="6" stroke-linecap="round"/>
</g>
<defs>
<filter id="filter0_d_937_200" x="0.0983887" y="0.16333" width="434.902" height="604.81" filterUnits="userSpaceOnUse" color-interpolation-filters="sRGB">
<feFlood flood-opacity="0" result="BackgroundImageFix"/>
<feColorMatrix in="SourceAlpha" type="matrix" values="0 0 0 0 0 0 0 0 0 0 0 0 0 0 0 0 0 0 127 0" result="hardAlpha"/>
<feOffset dx="2" dy="2"/>
<feGaussianBlur stdDeviation="2.5"/>
<feComposite in2="hardAlpha" operator="out"/>
<feColorMatrix type="matrix" values="0 0 0 0 0 0 0 0 0 0 0 0 0 0 0 0 0 0 0.4 0"/>
<feBlend mode="normal" in2="BackgroundImageFix" result="effect1_dropShadow_937_200"/>
<feBlend mode="normal" in="SourceGraphic" in2="effect1_dropShadow_937_200" result="shape"/>
</filter>
</defs>
</svg>
